<svg xmlns="http://www.w3.org/2000/svg" xmlns:xlink="http://www.w3.org/1999/xlink" viewBox="0 0 4000 4000" xmlns:v="https://vecta.io/nano"><style><![CDATA[.B{fill:#6cd2ea}.C{fill:#8cdcf2}.D{fill:#c8eefc}.E{fill:#3a89fc}.F{fill:#1e853e}.G{fill:#229444}.H{fill:#8a6f02}.I{fill:#997c02}.J{fill:#893128}.K{fill:#98372c}]]></style><clipPath id="A"><path d="M1677.9 665.6h2015.8v1893.6H1677.9z"/></clipPath><clipPath id="B"><path d="m2513.4 2432.4-2.8 21.1c-.7 4.9-4.1 9.4-10.4 12.7l2.8-21.1c6.3-3.3 9.7-7.8 10.4-12.7z"/></clipPath><clipPath id="C"><path d="m2365.8 2445.1 2.8-21.1c-.9 6.5 3.3 13.7 12.3 19.4l-2.8 21.1c-9-5.7-13.2-12.8-12.3-19.4z"/></clipPath><clipPath id="D"><path d="m2465.1 2465.2-2.8 21.1c-14.7 7.8-39.7 6-55.5-3.9l2.8-21.1c15.8 9.9 40.8 11.7 55.5 3.9z"/></clipPath><clipPath id="E"><path d="m2394.4 2495.4-2.8 21.1c-.7 4.9-4.1 9.4-10.4 12.7l2.8-21.1c6.3-3.3 9.8-7.9 10.4-12.7z"/></clipPath><clipPath id="F"><path d="m2246.9 2508.1 2.8-21.1c-.9 6.5 3.3 13.7 12.3 19.4l-2.8 21.1c-9.1-5.7-13.2-12.8-12.3-19.4z"/></clipPath><clipPath id="G"><path d="m2346.2 2528.1-2.8 21.1c-14.7 7.8-39.7 6.1-55.5-3.8l2.8-21.1c15.8 9.9 40.8 11.6 55.5 3.8z"/></clipPath><clipPath id="H"><path d="m2292.5 2576.5-2.8 21.1c-.9 6.9-5.8 13.4-14.7 18.1l2.8-21.1c8.9-4.7 13.8-11.2 14.7-18.1z"/></clipPath><clipPath id="I"><path d="m2083.6 2574.2 2.8-21.1c-1.3 9.3 4.7 19.6 17.6 27.7l-2.8 21.1c-12.9-8.1-18.8-18.4-17.6-27.7z"/></clipPath><clipPath id="J"><path d="m2233.7 2617.9-2.8 21.1c-20.9 11.1-56.4 8.7-78.9-5.4l2.8-21.1c22.4 14.1 58 16.5 78.9 5.4z"/></clipPath><clipPath id="K"><path d="m2127.8 2636.5-2.8 21.1c-.7 4.9-4.1 9.4-10.4 12.7l2.8-21.1c6.3-3.3 9.7-7.8 10.4-12.7z"/></clipPath><clipPath id="L"><path d="m1980.2 2649.3 2.8-21.1c-.9 6.5 3.3 13.7 12.3 19.4l-2.8 21.1c-9.1-5.7-13.2-12.9-12.3-19.4z"/></clipPath><clipPath id="M"><path d="m2079.5 2669.3-2.8 21.1c-14.7 7.8-39.7 6.1-55.5-3.8l2.8-21.1c15.8 9.9 40.8 11.6 55.5 3.8z"/></clipPath><clipPath id="N"><path d="m2008.8 2699.5-2.8 21.1c-.7 4.9-4.1 9.4-10.4 12.7l2.8-21.1c6.3-3.3 9.8-7.8 10.4-12.7z"/></clipPath><clipPath id="O"><path d="m1861.2 2712.2 2.8-21.1c-.9 6.5 3.3 13.7 12.4 19.4l-2.8 21.1c-9.1-5.7-13.2-12.8-12.4-19.4z"/></clipPath><clipPath id="P"><path d="m1960.5 2732.3-2.8 21.1c-14.7 7.8-39.7 6-55.5-3.9l2.8-21.1c15.9 9.9 40.8 11.7 55.5 3.9z"/></clipPath><clipPath id="Q"><path d="m2701.7 2560-2.8 21.1c-1.1 8-6.7 15.4-17 20.9l2.8-21.1c10.3-5.5 15.9-12.9 17-20.9z"/></clipPath><clipPath id="R"><use xlink:href="#y"/></clipPath><clipPath id="S"><path d="m2488.6 2672.8-2.8 21.1c-1.1 8-6.7 15.4-17 20.8l2.8-21.1c10.3-5.4 15.9-12.8 17-20.8z"/></clipPath><clipPath id="T"><path d="m2275.5 2720.1 2.8-21.1c-1.4 10.8 5.4 22.5 20.3 31.9 25.9 16.2 66.8 19 90.9 6.3l-2.8 21.1c-24.1 12.8-65.1 9.9-90.9-6.3-14.9-9.4-21.8-21.2-20.3-31.9z"/></clipPath><clipPath id="U"><path d="m2275.5 2785.6-2.8 21.1c-1.1 8-6.7 15.4-17 20.9l2.8-21.1c10.3-5.5 15.9-12.9 17-20.9z"/></clipPath><clipPath id="V"><use xlink:href="#y" x="-426.2" y="225.6"/></clipPath><clipPath id="W"><use xlink:href="#z"/></clipPath><clipPath id="X"><path d="m2614.9 2686.3 2.8-21.1c-1.4 10.8 5.4 22.5 20.3 31.9 25.9 16.2 66.9 19.1 90.9 6.3l-2.8 21.1c-24.1 12.7-65 9.9-90.9-6.3-14.9-9.4-21.7-21.1-20.3-31.9z"/></clipPath><clipPath id="Y"><path d="m2614.9 2751.9-2.8 21.1c-1.1 8-6.7 15.4-16.9 20.8l2.8-21.1c10.2-5.4 15.8-12.8 16.9-20.8z"/></clipPath><clipPath id="Z"><path d="m2401.8 2799.1 2.8-21.1c-1.4 10.8 5.4 22.5 20.3 31.9 25.9 16.2 66.9 19.1 91 6.3l-2.8 21.1c-24.1 12.8-65.1 9.9-91-6.3-14.9-9.3-21.8-21.1-20.3-31.9z"/></clipPath><clipPath id="a"><use xlink:href="#z" x="-426.2" y="225.6"/></clipPath><clipPath id="b"><path d="m2188.7 2911.9 2.8-21.1c-1.4 10.8 5.4 22.5 20.3 31.9 25.9 16.2 66.9 19.1 91 6.3l-2.8 21.1c-24.1 12.8-65 9.9-91-6.3-14.9-9.3-21.7-21.1-20.3-31.9z"/></clipPath><clipPath id="c"><use xlink:href="#z" x="126.3" y="79"/></clipPath><clipPath id="d"><path d="m2741.2 2765.4 2.8-21.1c-1.4 10.8 5.4 22.5 20.2 31.8 25.9 16.2 66.9 19.1 91 6.3l-2.8 21.1c-24.1 12.7-65 9.9-91-6.3-14.8-9.3-21.6-21.1-20.2-31.8z"/></clipPath><clipPath id="e"><path d="m2741.2 2831-2.8 21.1c-1.1 8-6.7 15.4-16.9 20.8l2.8-21.1c10.2-5.5 15.8-12.9 16.9-20.8z"/></clipPath><clipPath id="f"><path d="m2528.1 2878.2 2.8-21.1c-1.4 10.8 5.4 22.5 20.2 31.8 25.9 16.2 66.9 19.1 91 6.3l-2.8 21.1c-24.1 12.8-65.1 9.9-91-6.3-14.8-9.3-21.6-21-20.2-31.8z"/></clipPath><clipPath id="g"><path d="m2528.1 2943.7-2.8 21.1c-1.1 8-6.7 15.4-17 20.9l2.8-21.1c10.3-5.4 16-12.9 17-20.9z"/></clipPath><clipPath id="h"><path d="m2315 2991 2.8-21.1c-1.4 10.8 5.4 22.5 20.2 31.8 25.9 16.2 66.9 19.1 91 6.3l-2.8 21.1c-24.1 12.8-65 9.9-90.9-6.3-14.9-9.3-21.7-21-20.3-31.8z"/></clipPath><clipPath id="i"><path d="m3080.6 2797.2-2.8 21.1c-1.1 8-6.7 15.4-17 20.9l2.8-21.1c10.3-5.5 16-13 17-20.9z"/></clipPath><clipPath id="j"><path d="m2867.5 2844.4 2.8-21.1c-1.4 10.8 5.4 22.5 20.3 31.9 25.9 16.2 66.8 19 90.9 6.3l-2.8 21.1c-24.1 12.8-65 9.9-90.9-6.3-14.9-9.3-21.7-21.1-20.3-31.9z"/></clipPath><clipPath id="k"><path d="m2867.5 2910-2.8 21.1c-1.1 8-6.7 15.4-17 20.8l2.8-21.1c10.3-5.4 15.9-12.8 17-20.8z"/></clipPath><clipPath id="l"><path d="m2654.4 2957.3 2.8-21.1c-1.4 10.8 5.4 22.5 20.3 31.9 25.9 16.2 66.8 19 90.9 6.3l-2.8 21.1c-24.1 12.8-65.1 9.9-90.9-6.3-14.9-9.4-21.7-21.2-20.3-31.9z"/></clipPath><clipPath id="m"><use xlink:href="#z" x="-173.6" y="383.7"/></clipPath><clipPath id="n"><path d="m2441.3 3070 2.8-21.1c-1.4 10.8 5.4 22.5 20.3 31.9 25.9 16.2 66.8 19 90.9 6.3l-2.8 21.1c-24.1 12.7-65 9.9-90.9-6.3-14.9-9.3-21.7-21.1-20.3-31.9z"/></clipPath><clipPath id="o"><path d="m3242.3 2902.5-2.8 21.1c-1.3 9.7-8.2 18.8-20.7 25.4l2.8-21.1c12.6-6.6 19.4-15.7 20.7-25.4z"/></clipPath><clipPath id="p"><path d="m2995.8 2920.6 2.8-21.1c-1.8 13.1 6.5 27.4 24.6 38.7l-2.8 21.1c-18-11.3-26.3-25.6-24.6-38.7z"/></clipPath><clipPath id="q"><path d="m3158.5 2961.3-2.8 21.1c-29.3 15.5-79 12.1-110.5-7.6l2.8-21.1c31.5 19.7 81.2 23.1 110.5 7.6z"/></clipPath><clipPath id="r"><path d="m3029.2 3015.3-2.8 21.1c-1.3 9.7-8.1 18.7-20.6 25.3l2.8-21.1c12.5-6.5 19.3-15.6 20.6-25.3z"/></clipPath><clipPath id="s"><path d="m2782.7 3033.4 2.8-21.1c-1.8 13.1 6.5 27.4 24.6 38.7l-2.8 21.1c-18.1-11.3-26.3-25.6-24.6-38.7z"/></clipPath><clipPath id="t"><path d="m2945.4 3074.1-2.8 21.1c-29.3 15.5-79 12.1-110.5-7.6l2.8-21.1c31.4 19.7 81.2 23.1 110.5 7.6z"/></clipPath><clipPath id="u"><path d="m2816.1 3128.1-2.8 21.1c-1.3 9.7-8.1 18.8-20.7 25.4l2.8-21.1c12.6-6.6 19.4-15.7 20.7-25.4z"/></clipPath><clipPath id="v"><path d="m2569.6 3146.2 2.8-21.1c-1.8 13.1 6.5 27.4 24.6 38.7l-2.8 21.1c-18-11.3-26.3-25.6-24.6-38.7z"/></clipPath><clipPath id="w"><path d="m2732.3 3186.9-2.8 21.1c-29.3 15.5-79 12.1-110.5-7.6l2.8-21.1c31.5 19.7 81.2 23.1 110.5 7.6z"/></clipPath><path d="m3623.7 569h-960c-91.9 0-166.4 72.6-166.4 162.1v1980c0 89.5 74.5 162.1 166.4 162.1h960c91.9 0 166.4-72.6 166.4-162.1v-1980c-.1-89.6-74.5-162.1-166.4-162.1z" fill="#727272"/><path d="M3734 2833H2554.2c-9.2 0-16.7-7.5-16.7-16.7V631.1c0-9.2 7.5-16.7 16.7-16.7H3734c9.2 0 16.7 7.5 16.7 16.7v2185.2c-.1 9.2-7.5 16.7-16.7 16.7z" fill="#007ee3"/><path d="M2594.5 887.6h1099.2v1671.6H2594.5z" class="D"/><circle cx="3144.1" cy="2703.6" fill="#d0efff" r="83.5"/><path d="M3262.5 802.5h-236.9c-12.7 0-23-10.3-23-23s10.3-23 23-23h236.9c12.7 0 23 10.3 23 23 .1 12.7-10.2 23-23 23z" fill="#5cb8f6"/><circle cx="3144.1" cy="2690.4" fill="#fff" r="83.5"/><path d="M2713.6 1054.6h694.3v64.8h-694.3zm217.5 236h694.3v64.8h-694.3zm-324 231.5h694.3v64.8h-694.3zm55.5 240.6h694.3v64.8h-694.3zm9.3 231.5h694.3v64.8h-694.3zm212.9 472h694.3v64.8h-694.3z" class="E"/><path d="M3693.7 2566.7H2594.5V895.1z" fill="#d0efff" opacity=".2"/><g clip-path="url(#A)"><path d="M2270.5 1755.8l308.6-754.9c13.3-32.4 50.6-48.1 83.1-34.9l1249.3 510.7c32.4 13.3 48.1 50.6 34.9 83.1l-308.6 754.9c-10.9 26.8-38.4 42.1-65.8 39.2-5.8-.6-11.6-2-17.2-4.3l-25.2-10.3-422.6-172.8-801.6-327.6c-32.5-13.3-48.2-50.7-34.9-83.1z" fill="#fff"/><g fill="#0087ff"><path d="M2859 2156.9l248 9.7 422.5 172.7c-5.1 4.5-10.5 8.7-16.1 12.5l-196.4-7.7-1097.6-42.8c-35-1.4-62.5-31.1-61.2-66.1l4.1-105.4zM2256.1 1359l93.5 3.6 80.3 3.1-159.4 390c-13.3 32.4 2.4 69.8 34.9 83.1l277.3 113.3-248-9.7-164.8-6.4 20.1-515.9c1.4-34.9 31.1-62.4 66.1-61.1z"/></g><path d="M2334.7 1942.5l247.9 9.7 524.4 214.3-944.7-36.8 7.6-193.6z" fill="#003ca6"/><path d="m3554.6 2349.5c5.6 2.3 11.4 3.7 17.2 4.3-1.3 0-2.6.1-3.9 0l-54.6-2.1c5.6-3.8 11-8 16.1-12.5z" fill="#ffe000"/><path d="M2201.5 1725l148.1-362.4 80.3 3.1-159.4 390c-13.3 32.4 2.4 69.8 34.9 83.1l1224.1 500.3c-5.1 4.5-10.5 8.7-16.1 12.5L3317 2344l-1032.9-422.2c-76.8-31.4-114-120-82.6-196.8z" fill="#a6a6a6"/><g fill="#b9ddff"><use xlink:href="#AA"/><path d="M2629.483 1843.134l-226.52-92.594 38.786-94.884 226.52 92.594z"/></g><path d="M2571.7 1324.9l267.9 109.5c2.6 1 5.5-.2 6.5-2.7l83.5-204.3c1-2.6-.2-5.5-2.7-6.5L2659 1111.3c-2.6-1-5.5.2-6.5 2.7l-83.5 204.3c-1.1 2.6.2 5.6 2.7 6.6z" fill="#feb05c"/><g fill="#b9ddff"><path d="M3565.22 2225.662l-226.52-92.594 38.786-94.884 226.52 92.594zm-311.882-127.496l-226.52-92.594 38.786-94.884 226.52 92.594z"/></g><path d="m3612.5 1616.7c20.1-49.1 13.3-102.5-13.4-144 30.2-6.8 62.7-4.8 93.6 7.8 80 32.7 118.3 124 85.6 204s-124 118.3-204 85.6c-30.8-12.6-55.5-34-72.2-60 48.1-10.9 90.3-44.3 110.4-93.4z" fill="#ff5665"/><path d="m3323 1498.4c32.7-80 124-118.3 204-85.6 30.8 12.6 55.5 34 72.2 60-48.1 10.9-90.3 44.3-110.4 93.4s-13.3 102.5 13.4 144c-30.2 6.8-62.7 4.8-93.6-7.8-80-32.8-118.3-124.1-85.6-204z" fill="#0062c7"/><path d="m3488.8 1566.1c20.1-49.1 62.3-82.5 110.4-93.4 26.7 41.5 33.4 94.8 13.4 144-20.1 49.1-62.3 82.5-110.4 93.4-26.8-41.5-33.5-94.9-13.4-144z" fill="#003ca6"/></g><ellipse cx="1763.4" cy="2053.7" rx="126.3" ry="168.4" transform="matrix(.9543 -.2988 .2988 .9543 -533.1129 620.7736)" class="D"/><path d="M81.9 1506.6L986.3 1149s402.5-98.6 708.2 868.9l-793.7 312.2c-.1 0-223.5-891.8-818.9-823.5z" fill="#fff" stroke="#000" stroke-miterlimit="10" stroke-width="2"/><path d="m3315.3 2860.1-1244.7-847.1-17.1-15.5c-79.1-53.7-276.3-169.8-376.2-146.9-41.4 9.5-85.6 35.9-126.2 68.5l-768.6 411.6c101.4-22.2 202.8.6 283 55l.1-.6 1535.2 939.3c44.7 26.3 76.9 56.7 100.2 87.2l735.2-431.4c-22.8-40.6-60-84.3-120.9-120.1z" fill="#3ba9f4"/><path d="m2700.9 3411.5c63.2 82.5 60.5 165 60.5 165 10.3 45 3.9 90.2-15.2 128.8-10.9 22.2-26.2 42.1-44.6 58.7l661.9-443.1c1.5-.7 3-1.3 4.5-2 39.4-18.5 70.4-49.9 89.1-87.7 18.6-37.6 24.9-81.6 14.8-125.5 0 0 2-58.5-35.7-125.6z" class="E"/><path d="M604.1 2426.1l1 .6 2.8-2.7z" fill="#3ba9f4"/><path d="M2761.4 3576.5s5.2-154.5-160.7-252.2l-1535.3-938.7c-80.2-54.4-181.6-77.2-283-55-1.2.3-2.4.5-3.6.7-66.7 15.3-124.9 48.3-171 92.8-.9.9-1.9 1.8-2.8 2.7-16.1 15.9-30.7 33.1-43.6 51.6-57.1 81.8-81 186.4-57 290.7l47.2 205.9c44.9 195.8 241.9 319.3 437.7 274.3 44.8-10.3 85.8-28.6 121.9-53l1286.2 507.4c38.4 79.7 128.5 125.7 218.2 105.1 11.5-2.6 22.4-6.3 32.9-10.8l6.1-2.7c17.3-8.2 33-18.9 46.8-31.4 18.5-16.6 33.7-36.6 44.6-58.7 19.3-38.5 25.8-83.7 15.4-128.7z" fill="#0045aa"/><path d="m1734.6 1944.5 590.5 369.6-584.3 309.3-590.5-369.6z" fill="#fff"/><g fill="#2075ff"><path d="m2325.1 2314.1-2.9 21.1-584.2 309.3 2.8-21.1z"/><path d="m1740.8 2623.4-2.8 21.1-590.5-369.6 2.8-21.1z"/></g><g clip-path="url(#B)"><g class="B"><path d="m2513.4 2432.4-2.8 21.1c-.1 1.1-.4 2.2-.9 3.3l2.8-21.1c.4-1.1.7-2.2.9-3.3z"/><path d="m2512.5 2435.7-2.8 21.1c-.5 1.2-1.2 2.4-2 3.5l2.8-21.1c.8-1.2 1.5-2.3 2-3.5z"/></g><path d="m2510.4 2439.1-2.8 21.1c-.8 1.1-1.8 2.1-3 3.1l2.8-21.1c1.2-.9 2.2-2 3-3.1z" class="C"/><path d="m2507.4 2442.2-2.8 21.1c-1.3 1-2.7 2-4.4 2.9l2.8-21.1c1.7-.9 3.1-1.8 4.4-2.9z" class="B"/></g><g class="B"><g clip-path="url(#C)"><path d="m2381 2443.4-2.8 21.1c-.2-.1-.3-.2-.5-.3l2.8-21.1c.2.1.3.2.5.3z"/><path d="m2380.5 2443.1-2.8 21.1c-8.8-5.6-12.8-12.7-11.9-19.1l2.8-21.1c-.8 6.5 3.2 13.5 11.9 19.1z"/></g><path d="m2503 2445.1-2.8 21.1-37.9 20.1 2.8-21.1z"/></g><path d="m2409.6 2461.3-2.8 21.1-28.6-17.9 2.8-21.1z" class="C"/><use xlink:href="#AB" class="D"/><g clip-path="url(#D)"><g class="B"><path d="m2465.1 2465.2-2.8 21.1c-.1 0-.1.1-.2.1l2.8-21.1s.1-.1.2-.1z"/><path d="m2464.9 2465.3-2.8 21.1c-3.3 1.7-7.2 3-11.3 3.8l2.8-21.1c4.1-.8 7.9-2.1 11.3-3.8z"/><use xlink:href="#AC"/><path d="m2448.9 2469.7-2.8 21.1c-4.5.5-9.3.4-14.1-.1l2.8-21.1c4.8.6 9.5.6 14.1.1z"/><path d="m2434.8 2469.6-2.8 21.1c-2.5-.3-5.1-.7-7.5-1.3l2.8-21.1c2.4.6 5 1 7.5 1.3z"/></g><path d="M2427.3 2468.4l-2.8 21.1-6.3-1.8 2.8-21.1a57.91 57.91 0 0 0 6.3 1.8z" class="C"/><g class="B"><path d="M2421 2466.6l-2.8 21.1-5.8-2.3 2.8-21.1c1.8.9 3.8 1.6 5.8 2.3zm-5.9-2.3l-2.8 21.1c-1.9-.9-3.8-1.9-5.5-3l2.8-21.1c1.7 1.1 3.6 2.1 5.5 3z"/></g></g><g clip-path="url(#E)"><g class="B"><path d="m2394.4 2495.4-2.8 21.1c-.1 1.1-.4 2.2-.9 3.3l2.8-21.1c.5-1.1.8-2.2.9-3.3z"/><path d="m2393.5 2498.6-2.8 21.1c-.5 1.2-1.2 2.4-2 3.5l2.8-21.1c.9-1.1 1.5-2.3 2-3.5z"/></g><path d="m2391.5 2502.1-2.8 21.1c-.8 1.1-1.8 2.1-3 3.1l2.8-21.1c1.2-1 2.2-2 3-3.1z" class="C"/><path d="m2388.5 2505.2-2.8 21.1c-1.3 1-2.7 2-4.4 2.9l2.8-21.1c1.6-.9 3.1-1.9 4.4-2.9z" class="B"/></g><g class="B"><g clip-path="url(#F)"><path d="m2262 2506.4-2.8 21.1c-.2-.1-.3-.2-.5-.3l2.8-21.1c.2.1.4.2.5.3z"/><path d="m2261.6 2506.1-2.8 21.1c-8.8-5.6-12.8-12.7-11.9-19.1l2.8-21.1c-.9 6.4 3.1 13.5 11.9 19.1z"/></g><path d="m2384 2508.1-2.8 21.1-37.8 20 2.8-21.1z"/></g><path d="m2290.6 2524.3-2.8 21.1-28.6-17.9 2.8-21.1z" class="C"/><path d="m2298 2454.2c14.7-7.8 39.7-6.1 55.5 3.8l28.6 17.9c15.8 9.9 16.7 24.4 2 32.2l-37.9 20c-14.7 7.8-39.7 6.1-55.5-3.8l-28.6-17.9c-15.8-9.9-16.7-24.3-1.9-32.1z" class="D"/><g clip-path="url(#G)"><g class="B"><path d="m2346.2 2528.1-2.8 21.1c-.1 0-.1.1-.2.1l2.8-21.1s.1 0 .2-.1z"/><path d="m2346 2528.3-2.8 21.1c-3.3 1.7-7.2 3-11.4 3.8l2.8-21.1c4.2-.9 8-2.1 11.4-3.8z"/><path d="M2334.6 2532l-2.8 21.1c-1.5.3-3.1.5-4.7.7l2.8-21.1 4.7-.7z"/><path d="m2329.9 2532.7-2.8 21.1c-4.5.5-9.3.4-14.1-.1l2.8-21.1c4.8.5 9.6.6 14.1.1z"/><path d="m2315.8 2532.6-2.8 21.1c-2.5-.3-5.1-.7-7.5-1.3l2.8-21.1c2.5.6 5 1 7.5 1.3z"/></g><path d="M2308.3 2531.3l-2.8 21.1-6.3-1.8 2.8-21.1c2.1.8 4.2 1.3 6.3 1.8z" class="C"/><g class="B"><path d="M2302 2529.6l-2.8 21.1-5.8-2.3 2.8-21.1 5.8 2.3z"/><path d="m2296.2 2527.3-2.8 21.1c-1.9-.9-3.8-1.9-5.5-3l2.8-21.1c1.7 1.1 3.5 2.1 5.5 3z"/></g></g><g clip-path="url(#H)"><g class="B"><path d="m2292.5 2576.5-2.8 21.1c-.2 1.6-.6 3.1-1.3 4.7l2.8-21.1c.7-1.5 1.1-3.1 1.3-4.7z"/><path d="m2291.2 2581.2-2.8 21.1c-.7 1.7-1.7 3.3-2.9 4.9l2.8-21.1c1.3-1.6 2.2-3.2 2.9-4.9z"/></g><path d="m2288.4 2586.1-2.8 21.1c-1.2 1.5-2.6 3-4.3 4.4l2.8-21.1c1.6-1.4 3.1-2.9 4.3-4.4z" class="C"/><path d="m2284 2590.5-2.8 21.1c-1.8 1.5-3.9 2.9-6.3 4.1l2.8-21.1c2.4-1.3 4.5-2.6 6.3-4.1z" class="B"/></g><g class="B"><g clip-path="url(#I)"><path d="m2104 2580.8-2.8 21.1c-.2-.1-.4-.3-.6-.4l2.8-21.1c.2.1.4.2.6.4z"/><path d="m2103.4 2580.4-2.8 21.1c-12.5-8-18.2-18.1-16.9-27.3l2.8-21.1c-1.3 9.2 4.4 19.2 16.9 27.3z"/></g><path d="m2277.8 2594.6-2.9 21.1-44 23.3 2.8-21.1z"/></g><path d="m2154.8 2612.5-2.9 21.1-50.7-31.7 2.8-21.1z" class="C"/><path d="m2145.3 2511.7c20.9-11.1 56.4-8.6 78.9 5.5l50.7 31.7c22.5 14.1 23.8 34.6 2.9 45.7l-44.1 23.3c-20.9 11.1-56.4 8.7-78.9-5.4l-50.7-31.7c-22.5-14.1-23.8-34.7-2.9-45.8z" class="D"/><g clip-path="url(#J)"><g class="B"><path d="m2233.7 2617.9-2.8 21.1c-.1.1-.2.1-.3.2l2.8-21.1c.1-.1.2-.1.3-.2z"/><path d="m2233.4 2618.1-2.8 21.1c-4.8 2.5-10.2 4.3-16.2 5.4l2.8-21.1c5.9-1.2 11.4-2.9 16.2-5.4z"/><path d="M2217.2 2623.5l-2.8 21.1-6.7 1 2.8-21.1 6.7-1z"/><path d="m2210.6 2624.4-2.8 21.1c-6.5.7-13.3.6-20.1-.2l2.8-21.1c6.8.8 13.6.9 20.1.2z"/><path d="m2190.5 2624.3-2.8 21.1c-3.6-.4-7.2-1-10.7-1.8l2.8-21.1c3.5.8 7.1 1.4 10.7 1.8z"/></g><path d="M2179.8 2622.5l-2.8 21.1-8.9-2.5 2.8-21.1 8.9 2.5z" class="C"/><g class="B"><path d="M2170.9 2620l-2.8 21.1c-2.8-.9-5.6-2-8.3-3.3l2.8-21.1 8.3 3.3z"/><path d="m2162.6 2616.7-2.8 21.1c-2.8-1.3-5.4-2.7-7.9-4.2l2.8-21.1c2.5 1.6 5.2 3 7.9 4.2z"/></g></g><g clip-path="url(#K)"><g class="B"><path d="m2127.8 2636.5-2.8 21.1c-.2 1.1-.4 2.2-.9 3.3l2.8-21.1c.4-1.1.7-2.2.9-3.3z"/><path d="m2126.9 2639.8-2.8 21.1c-.5 1.2-1.2 2.4-2 3.5l2.8-21.1c.8-1.1 1.5-2.3 2-3.5z"/></g><path d="m2124.8 2643.3-2.8 21.1c-.8 1.1-1.8 2.1-3 3.1l2.8-21.1c1.2-1 2.2-2 3-3.1z" class="C"/><path d="m2121.8 2646.4-2.8 21.1c-1.3 1-2.7 2-4.4 2.9l2.8-21.1c1.7-.9 3.1-1.9 4.4-2.9z" class="B"/></g><g class="B"><g clip-path="url(#L)"><path d="m1995.3 2647.6-2.8 21.1c-.2-.1-.3-.2-.5-.3l2.8-21.1c.2.1.4.2.5.3z"/><path d="m1994.9 2647.3-2.8 21.1c-8.8-5.6-12.8-12.7-11.9-19.1l2.8-21.1c-.9 6.4 3.1 13.5 11.9 19.1z"/></g><path d="m2117.4 2649.3-2.8 21.1-37.9 20 2.8-21.1z"/></g><path d="m2023.9 2665.5-2.8 21.1-28.6-17.9 2.8-21.1z" class="C"/><path d="m2031.3 2595.4c14.7-7.8 39.7-6.1 55.5 3.8l28.6 17.9c15.8 9.9 16.7 24.4 2 32.2l-37.9 20.1c-14.7 7.8-39.7 6.1-55.5-3.8l-28.6-17.9c-15.8-9.9-16.7-24.3-1.9-32.1z" class="D"/><g clip-path="url(#M)"><g class="B"><path d="m2079.5 2669.3-2.8 21.1c-.1 0-.1.1-.2.1l2.8-21.1s.1 0 .2-.1z"/><path d="m2079.3 2669.4-2.8 21.1c-3.3 1.7-7.2 3-11.4 3.8l2.8-21.1c4.2-.8 8-2 11.4-3.8z"/><path d="M2067.9 2673.2l-2.8 21.1c-1.5.3-3.1.5-4.7.7l2.8-21.1 4.7-.7z"/><path d="m2063.2 2673.9-2.8 21.1c-4.5.5-9.3.4-14.1-.1l2.8-21.1c4.8.5 9.6.6 14.1.1z"/><path d="m2049.1 2673.8-2.8 21.1c-2.5-.3-5.1-.7-7.5-1.3l2.8-21.1c2.5.6 5 1 7.5 1.3z"/></g><path d="M2041.6 2672.5l-2.8 21.1-6.3-1.8 2.8-21.1c2 .7 4.2 1.3 6.3 1.8z" class="C"/><g class="B"><path d="M2035.3 2670.8l-2.8 21.1-5.8-2.3 2.8-21.1 5.8 2.3z"/><path d="m2029.5 2668.5-2.8 21.1c-1.9-.9-3.8-1.9-5.5-3l2.8-21.1c1.7 1.1 3.5 2.1 5.5 3z"/></g></g><g clip-path="url(#N)"><g class="B"><path d="m2008.8 2699.5-2.8 21.1c-.2 1.1-.4 2.2-.9 3.3l2.8-21.1c.5-1.1.8-2.2.9-3.3z"/><path d="m2007.9 2702.8-2.8 21.1c-.5 1.2-1.2 2.4-2 3.5l2.8-21.1c.9-1.2 1.5-2.3 2-3.5z"/></g><path d="m2005.9 2706.2-2.8 21.1c-.8 1.1-1.8 2.1-3 3.1l2.8-21.1c1.1-.9 2.2-2 3-3.1z" class="C"/><path d="m2002.9 2709.3-2.8 21.1c-1.3 1-2.7 2-4.4 2.9l2.8-21.1c1.6-.9 3.1-1.8 4.4-2.9z" class="B"/></g><g class="B"><g clip-path="url(#O)"><path d="m1876.4 2710.5-2.8 21.1c-.2-.1-.3-.2-.5-.3l2.8-21.1c.2.1.4.2.5.3z"/><path d="m1876 2710.2-2.8 21.1c-8.8-5.6-12.8-12.7-11.9-19.1l2.8-21.1c-.9 6.5 3.1 13.5 11.9 19.1z"/></g><path d="m1998.4 2712.2-2.8 21.1-37.9 20.1 2.8-21.1z"/></g><path d="m1905 2728.4-2.8 21.1-28.6-17.9 2.8-21.1z" class="C"/><use xlink:href="#AB" x="-504.6" y="267.1" class="D"/><g clip-path="url(#P)"><g class="B"><path d="m1960.5 2732.3-2.8 21.1c-.1 0-.1.1-.2.1l2.8-21.1c.1 0 .2-.1.2-.1z"/><path d="m1960.3 2732.4-2.8 21.1c-3.3 1.7-7.2 3-11.3 3.8l2.8-21.1c4.1-.8 8-2 11.3-3.8z"/><path d="M1949 2736.2l-2.8 21.1c-1.5.3-3.1.5-4.7.7l2.8-21.1 4.7-.7z"/><path d="m1944.3 2736.9-2.8 21.1c-4.5.5-9.3.4-14-.1l2.8-21.1c4.7.5 9.5.5 14 .1z"/><path d="m1930.3 2736.7-2.8 21.1c-2.5-.3-5.1-.7-7.5-1.3l2.8-21.1c2.4.6 4.9 1.1 7.5 1.3z"/></g><path d="M1922.7 2735.5l-2.8 21.1-6.3-1.8 2.8-21.1 6.3 1.8z" class="C"/><g class="B"><path d="M1916.4 2733.7l-2.8 21.1-5.8-2.3 2.8-21.1c1.9.9 3.8 1.6 5.8 2.3z"/><path d="M1910.6 2731.4l-2.8 21.1-5.6-3 2.8-21.1c1.8 1.1 3.7 2.1 5.6 3z"/></g></g><g clip-path="url(#Q)"><g class="B"><use xlink:href="#AD"/><use xlink:href="#AE"/></g><use xlink:href="#AF" class="C"/><use xlink:href="#AG" class="B"/></g><path d="m2684.7 2580.9-2.8 21-82.1 43.5 2.8-21.1z" class="B"/><use xlink:href="#AH" class="D"/><g clip-path="url(#R)"><g class="B"><use xlink:href="#AI"/><use xlink:href="#AJ"/><use xlink:href="#AK"/><path d="m2576 2631.8-2.8 21.1c-7.4.8-15.3.7-23.1-.2l2.8-21.1c7.8.9 15.7.9 23.1.2z"/><use xlink:href="#AL"/></g><use xlink:href="#AM" class="C"/><g class="B"><path d="m2530.3 2626.6-2.8 21.1c-3.3-1.1-6.5-2.3-9.5-3.8l2.8-21.1c3 1.5 6.2 2.7 9.5 3.8z"/><use xlink:href="#AN"/><use xlink:href="#AO"/></g></g><g clip-path="url(#S)"><g class="B"><path d="m2488.6 2672.8-2.8 21.1c-.2 1.8-.7 3.6-1.5 5.4l2.8-21.1c.7-1.8 1.2-3.6 1.5-5.4z"/><path d="m2487.1 2678.2-2.8 21.1c-.8 2-1.9 3.8-3.3 5.7l2.8-21.1c1.4-1.9 2.5-3.8 3.3-5.7z"/></g><path d="m2483.8 2683.9-2.8 21.1c-1.4 1.8-3 3.5-5 5.1l2.8-21.1c2-1.7 3.6-3.4 5-5.1z" class="C"/><path d="m2478.8 2688.9-2.8 21.1c-2.1 1.7-4.5 3.3-7.2 4.7l2.8-21.1c2.8-1.4 5.2-3 7.2-4.7z" class="B"/></g><path d="m2471.6 2693.7-2.8 21-82.1 43.5 2.8-21.1z" class="B"/><g clip-path="url(#T)"><g class="B"><path d="m2389.5 2737.1-2.8 21.1c-.1.1-.2.1-.4.2l2.8-21.1c.2-.1.3-.1.4-.2z"/><path d="m2389.2 2737.3-2.8 21.1c-5.5 2.8-11.8 4.9-18.6 6.2l2.8-21.1c6.8-1.3 13.1-3.4 18.6-6.2z"/><path d="M2370.6 2743.5l-2.8 21.1c-2.5.5-5.1.8-7.7 1.1l2.8-21.1 7.7-1.1z"/><path d="m2362.9 2744.6-2.8 21.1c-7.5.8-15.3.7-23.1-.2l2.8-21.1c7.8.9 15.6.9 23.1.2z"/><use xlink:href="#AP"/></g><path d="m2327.5 2742.3-2.8 21.1c-3.5-.8-6.9-1.7-10.3-2.9l2.8-21.1c3.3 1.2 6.8 2.1 10.3 2.9z" class="C"/><g class="B"><path d="M2317.2 2739.5l-2.8 21.1c-3.3-1.1-6.5-2.3-9.5-3.7l2.8-21.1c3 1.3 6.2 2.6 9.5 3.7zm-9.6-3.8l-2.8 21.1c-3.2-1.5-6.2-3.1-9.1-4.9-.2-.2-.5-.3-.7-.5l2.8-21.1c.2.2.5.3.7.5 2.9 1.8 6 3.5 9.1 4.9z"/><path d="m2297.9 2730.4-2.8 21.1c-14.4-9.2-21-20.8-19.5-31.4l2.8-21.1c-1.5 10.6 5.1 22.1 19.5 31.4z"/></g></g><path d="m2377.4 2634.7c24.1-12.8 65-9.9 91 6.3 25.9 16.2 27.4 39.9 3.3 52.7l-82.1 43.5c-24.1 12.8-65.1 9.9-90.9-6.3-25.9-16.2-27.4-39.9-3.3-52.7z" class="D"/><g clip-path="url(#U)"><g class="B"><path d="m2275.5 2785.6-2.8 21.1c-.2 1.8-.7 3.6-1.5 5.4l2.8-21.1c.8-1.8 1.3-3.6 1.5-5.4z"/><path d="m2274 2791-2.8 21.1c-.8 2-1.9 3.9-3.3 5.7l2.8-21.1c1.4-1.9 2.5-3.8 3.3-5.7z"/></g><path d="m2270.7 2796.7-2.8 21.1c-1.4 1.8-3 3.5-5 5.1l2.8-21.1c2-1.7 3.6-3.4 5-5.1z" class="C"/><path d="m2265.7 2801.7-2.8 21.1c-2.1 1.7-4.5 3.3-7.3 4.8l2.8-21.1c2.8-1.5 5.3-3.1 7.3-4.8z" class="B"/></g><path d="m2258.5 2806.5-2.8 21.1-82.1 43.4 2.8-21.1z" class="B"/><use xlink:href="#AH" x="-426.2" y="225.6" class="D"/><g clip-path="url(#V)"><g class="B"><path d="m2176.4 2849.9-2.8 21.1c-.1.1-.2.1-.4.2l2.8-21.1c.2 0 .3-.1.4-.2z"/><use xlink:href="#AQ"/><path d="M2157.5 2856.3l-2.8 21.1c-2.5.5-5.1.8-7.7 1.1l2.8-21.1 7.7-1.1z"/><path d="m2149.8 2857.4-2.8 21.1c-7.4.8-15.3.7-23.1-.2l2.8-21.1c7.8.9 15.7 1 23.1.2z"/><path d="m2126.7 2857.2-2.8 21.1c-4.1-.5-8.3-1.2-12.3-2.1l2.8-21.1c4.1.9 8.2 1.6 12.3 2.1z"/></g><path d="m2114.4 2855.1-2.8 21.1c-3.5-.8-7-1.7-10.3-2.9l2.8-21.1c3.4 1.2 6.8 2.1 10.3 2.9z" class="C"/><g class="B"><path d="m2104.1 2852.3-2.8 21.1c-3.3-1.1-6.5-2.3-9.5-3.8l2.8-21.1c3 1.4 6.2 2.7 9.5 3.8z"/><use xlink:href="#AR"/><path d="m2084.8 2843.2-2.8 21.1c-14.4-9.2-21-20.8-19.5-31.4l2.8-21.1c-1.5 10.6 5.1 22.1 19.5 31.4z"/></g></g><g clip-path="url(#W)"><g class="B"><path d="m2828 2639.1-2.8 21.1c-.2 1.8-.7 3.6-1.5 5.4l2.8-21.1c.8-1.8 1.3-3.6 1.5-5.4z"/><use xlink:href="#AS"/></g><use xlink:href="#AT" class="C"/><path d="m2818.3 2655.2-2.8 21.1c-2.1 1.7-4.5 3.3-7.2 4.8l2.8-21.1c2.7-1.5 5.1-3.1 7.2-4.8z" class="B"/></g><path d="m2811 2659.9-2.8 21.1-82.1 43.5 2.9-21.1z" class="B"/><path d="m2716.8 2600.9c24.1-12.8 65.1-9.9 91 6.3s27.4 39.9 3.3 52.7l-82.1 43.5c-24.1 12.7-65 9.9-90.9-6.3s-27.4-39.9-3.3-52.7z" class="D"/><g clip-path="url(#X)"><g class="B"><path d="m2729 2703.4-2.8 21.1c-.1.1-.2.1-.4.2l2.8-21.1c.1-.1.2-.1.4-.2z"/><path d="m2728.6 2703.6-2.8 21.1c-5.5 2.8-11.8 4.9-18.6 6.2l2.8-21.1c6.8-1.3 13.1-3.4 18.6-6.2z"/><use xlink:href="#AU"/><use xlink:href="#AV"/><path d="m2679.3 2710.7-2.8 21.1c-4.1-.5-8.3-1.2-12.3-2.1l2.8-21.1c4 .9 8.2 1.6 12.3 2.1z"/></g><path d="m2667 2708.6-2.8 21.1c-3.5-.8-7-1.7-10.3-2.9l2.8-21.1c3.3 1.1 6.8 2.1 10.3 2.9z" class="C"/><g class="B"><path d="m2656.6 2705.7-2.8 21.1c-3.3-1.1-6.5-2.4-9.5-3.8l2.8-21.1c3.1 1.5 6.3 2.7 9.5 3.8z"/><path d="m2647.1 2702-2.8 21.1c-3.2-1.5-6.2-3.1-9.1-4.9-.2-.2-.5-.3-.7-.5l2.8-21.1c.2.2.5.3.7.5 2.9 1.8 5.9 3.4 9.1 4.9z"/><use xlink:href="#AW"/></g></g><g clip-path="url(#Y)"><g class="B"><path d="m2614.9 2751.9-2.8 21.1c-.2 1.8-.7 3.6-1.5 5.4l2.8-21.1c.8-1.8 1.3-3.6 1.5-5.4z"/><path d="m2613.5 2757.3-2.8 21.1c-.8 2-1.9 3.8-3.3 5.7l2.8-21.1c1.4-1.9 2.5-3.8 3.3-5.7z"/></g><path d="m2610.2 2762.9-2.8 21.1c-1.4 1.8-3 3.5-5 5l2.8-21.1c1.9-1.5 3.6-3.2 5-5z" class="C"/><use xlink:href="#AX" class="B"/></g><path d="m2598 2772.7-2.9 21.1-82 43.5 2.8-21.1z" class="B"/><g clip-path="url(#Z)"><g class="B"><path d="m2515.9 2816.2-2.8 21.1c-.1.1-.2.1-.4.2l2.8-21.1c.2-.1.3-.1.4-.2z"/><path d="m2515.5 2816.4-2.8 21.1c-5.5 2.8-11.8 4.9-18.6 6.2l2.8-21.1c6.8-1.3 13.2-3.4 18.6-6.2z"/><path d="M2496.9 2822.6l-2.8 21.1c-2.5.5-5.1.8-7.7 1.1l2.8-21.1 7.7-1.1z"/><path d="m2489.2 2823.7-2.8 21.1c-7.4.8-15.3.7-23.1-.2l2.8-21.1c7.9.9 15.7.9 23.1.2z"/><use xlink:href="#AY"/></g><path d="m2453.8 2821.4-2.8 21.1c-3.5-.8-7-1.7-10.3-2.9l2.8-21.1c3.4 1.2 6.8 2.1 10.3 2.9z" class="C"/><g class="B"><path d="m2443.5 2818.5-2.8 21.1c-3.3-1.1-6.5-2.4-9.5-3.8l2.8-21.1c3 1.5 6.2 2.7 9.5 3.8z"/><path d="M2434 2814.8l-2.8 21.1c-3.2-1.5-6.2-3.1-9.1-4.9-.2-.2-.5-.3-.7-.5l2.8-21.1c.2.2.5.3.7.5 2.8 1.8 5.9 3.4 9.1 4.9zm-9.9-5.4l-2.8 21.1c-14.4-9.2-21-20.8-19.5-31.4l2.8-21.1c-1.4 10.6 5.2 22.2 19.5 31.4z"/></g></g><path d="m2503.7 2713.7c24.1-12.8 65-9.9 90.9 6.3s27.4 39.9 3.3 52.7l-82.1 43.5c-24.1 12.8-65.1 9.9-91-6.3s-27.4-39.9-3.3-52.7z" class="D"/><g clip-path="url(#a)"><g class="B"><path d="m2401.8 2864.7-2.8 21.1c-.2 1.8-.7 3.6-1.5 5.4l2.8-21.1c.8-1.8 1.3-3.6 1.5-5.4z"/><path d="m2400.4 2870.1-2.8 21.1c-.8 2-1.9 3.9-3.3 5.7l2.8-21.1c1.4-1.9 2.5-3.8 3.3-5.7z"/></g><path d="m2397.1 2875.7-2.8 21.1c-1.4 1.8-3 3.5-5 5.1l2.8-21.1c1.9-1.6 3.6-3.3 5-5.1z" class="C"/><path d="m2392.1 2880.8-2.8 21.1c-2.1 1.7-4.5 3.3-7.2 4.8l2.8-21.1c2.7-1.5 5.1-3.1 7.2-4.8z" class="B"/></g><path d="m2384.8 2885.6-2.8 21.1-82.1 43.4 2.9-21.1z" class="B"/><path d="m2290.5 2826.5c24.1-12.8 65.1-9.9 91 6.3s27.4 39.9 3.3 52.7l-82.1 43.5c-24.1 12.8-65 9.9-91-6.3-25.9-16.2-27.4-39.9-3.3-52.7z" class="D"/><g clip-path="url(#b)"><g class="B"><path d="m2302.8 2929-2.8 21.1c-.1.1-.2.1-.4.2l2.8-21.1c.1-.1.2-.1.4-.2z"/><path d="m2302.4 2929.2-2.8 21.1c-5.5 2.8-11.8 4.9-18.6 6.2l2.8-21.1c6.8-1.3 13.1-3.4 18.6-6.2z"/><path d="M2283.8 2935.4l-2.8 21.1c-2.5.5-5.1.8-7.7 1.1l2.8-21.1 7.7-1.1z"/><path d="m2276.2 2936.5-2.8 21.1c-7.4.8-15.3.7-23.1-.2l2.8-21.1c7.8.9 15.6.9 23.1.2z"/><path d="m2253.1 2936.3-2.8 21.1c-4.1-.5-8.3-1.2-12.3-2.1l2.8-21.1c4 .9 8.2 1.6 12.3 2.1z"/></g><path d="m2240.8 2934.2-2.8 21.1c-3.5-.8-7-1.7-10.3-2.9l2.8-21.1c3.3 1.2 6.8 2.1 10.3 2.9z" class="C"/><g class="B"><path d="m2230.4 2931.3-2.8 21.1c-3.3-1.1-6.5-2.4-9.5-3.8l2.8-21.1c3.1 1.5 6.3 2.7 9.5 3.8z"/><path d="m2220.9 2927.6-2.8 21.1c-3.2-1.5-6.2-3.1-9.1-4.9-.2-.2-.5-.3-.7-.5l2.8-21.1c.2.2.5.3.7.5 2.9 1.8 5.9 3.4 9.1 4.9z"/><path d="m2211.1 2922.2-2.8 21.1c-14.4-9.2-21-20.8-19.5-31.4l2.8-21.1c-1.5 10.6 5.1 22.2 19.5 31.4z"/></g></g><g clip-path="url(#c)"><g class="B"><path d="m2954.3 2718.1-2.8 21.1c-.2 1.8-.7 3.6-1.5 5.4l2.8-21.1c.8-1.8 1.3-3.6 1.5-5.4z"/><path d="m2952.9 2723.5-2.8 21.1c-.8 2-1.9 3.9-3.3 5.7l2.8-21.1c1.4-1.9 2.5-3.8 3.3-5.7z"/></g><path d="m2949.6 2729.2-2.8 21.1c-1.4 1.8-3 3.5-5 5.1l2.8-21.1c1.9-1.7 3.6-3.4 5-5.1z" class="C"/><path d="m2944.6 2734.2-2.8 21.1c-2.1 1.7-4.5 3.3-7.2 4.8l2.8-21.1c2.7-1.5 5.1-3.1 7.2-4.8z" class="B"/></g><path d="m2937.3 2739-2.8 21.1-82.1 43.4 2.8-21.1z" class="B"/><g clip-path="url(#d)"><g class="B"><path d="m2855.2 2782.4-2.8 21.1c-.1.1-.2.1-.4.2l2.8-21.1c.2 0 .3-.1.4-.2z"/><path d="m2854.9 2782.6-2.8 21.1c-5.5 2.8-11.8 4.9-18.6 6.2l2.8-21.1c6.8-1.3 13.1-3.3 18.6-6.2z"/><path d="M2836.3 2788.8l-2.8 21.1c-2.5.5-5.1.8-7.7 1.1l2.8-21.1 7.7-1.1z"/><path d="m2828.7 2789.9-2.8 21.1c-7.4.8-15.3.7-23.1-.2l2.8-21.1c7.8.9 15.6 1 23.1.2z"/><path d="m2805.6 2789.7-2.8 21.1c-4.1-.5-8.3-1.2-12.3-2.1l2.8-21.1c4 .9 8.2 1.6 12.3 2.1z"/></g><path d="m2793.3 2787.6-2.8 21.1c-3.5-.8-7-1.7-10.3-2.9l2.8-21.1c3.3 1.2 6.7 2.1 10.3 2.9z" class="C"/><g class="B"><path d="m2782.9 2784.8-2.8 21.1c-3.3-1.1-6.5-2.4-9.5-3.8l2.8-21.1c3.1 1.4 6.3 2.7 9.5 3.8z"/><path d="m2773.4 2781-2.8 21.1c-3.2-1.5-6.2-3.1-9.1-4.9-.2-.2-.5-.3-.7-.5l2.8-21.1c.2.2.5.3.7.5 2.9 1.8 5.9 3.4 9.1 4.9z"/><path d="m2763.6 2775.6-2.8 21.1c-14.3-9.2-20.9-20.8-19.5-31.4l2.8-21.1c-1.5 10.7 5.1 22.2 19.5 31.4z"/></g></g><path d="m2843.1 2680c24.1-12.8 65.1-9.9 90.9 6.3 25.9 16.2 27.4 39.9 3.3 52.7l-82.1 43.5c-24.1 12.7-65 9.9-91-6.3-25.9-16.2-27.4-39.9-3.3-52.7z" class="D"/><g clip-path="url(#e)"><g class="B"><path d="m2741.2 2831-2.8 21.1c-.2 1.8-.7 3.6-1.5 5.4l2.8-21.1c.8-1.8 1.3-3.6 1.5-5.4z"/><path d="m2739.8 2836.3-2.8 21.1c-.8 2-1.9 3.8-3.3 5.7l2.8-21.1c1.3-1.8 2.4-3.7 3.3-5.7z"/></g><path d="m2736.4 2842-2.8 21.1c-1.4 1.8-3 3.5-5 5l2.8-21.1c2-1.6 3.7-3.2 5-5z" class="C"/><path d="m2731.5 2847-2.8 21.1c-2.1 1.7-4.5 3.3-7.2 4.7l2.8-21.1c2.7-1.4 5.1-3 7.2-4.7z" class="B"/></g><path d="m2724.3 2851.8-2.9 21.1-82.1 43.4 2.9-21.1z" class="B"/><g clip-path="url(#f)"><g class="B"><path d="m2642.2 2895.2-2.8 21.1c-.1.1-.2.1-.4.2l2.8-21.1c.1 0 .3-.1.4-.2z"/><path d="m2641.8 2895.4-2.8 21.1c-5.5 2.8-11.8 4.9-18.6 6.2l2.8-21.1c6.8-1.3 13.1-3.3 18.6-6.2z"/><path d="M2623.2 2901.6l-2.8 21.1c-2.5.5-5.1.8-7.7 1.1l2.8-21.1 7.7-1.1z"/><path d="m2615.5 2902.7-2.8 21.1c-7.4.8-15.3.7-23.1-.2l2.8-21.1c7.8.9 15.7 1 23.1.2z"/><path d="m2592.5 2902.5-2.8 21.1c-4.1-.5-8.3-1.2-12.3-2.1l2.8-21.1c4 1 8.1 1.7 12.3 2.1z"/></g><path d="m2580.1 2900.4-2.8 21.1c-3.5-.8-7-1.7-10.3-2.9l2.8-21.1c3.4 1.2 6.8 2.2 10.3 2.9z" class="C"/><g class="B"><path d="m2569.8 2897.6-2.8 21.1c-3.3-1.1-6.5-2.4-9.5-3.8l2.8-21.1c3 1.4 6.2 2.7 9.5 3.8z"/><path d="M2560.3 2893.8l-2.8 21.1c-3.2-1.5-6.2-3.1-9.1-4.9-.2-.2-.5-.3-.7-.5l2.8-21.1c.2.2.5.3.7.5 2.8 1.8 5.9 3.5 9.1 4.9zm-9.9-5.3l-2.8 21.1c-14.3-9.2-20.9-20.8-19.5-31.3l2.8-21.1c-1.4 10.5 5.2 22.1 19.5 31.3z"/></g></g><path d="m2630 2792.8c24.1-12.8 65-9.9 90.9 6.3s27.4 39.9 3.3 52.7l-82.1 43.5c-24.1 12.8-65.1 9.9-91-6.3s-27.4-39.9-3.2-52.7z" class="D"/><g clip-path="url(#g)"><g class="B"><path d="m2528.1 2943.7-2.8 21.1c-.2 1.8-.7 3.6-1.5 5.4l2.8-21.1c.8-1.7 1.3-3.5 1.5-5.4z"/><path d="m2526.7 2949.1-2.8 21.1c-.8 2-1.9 3.9-3.3 5.7l2.8-21.1c1.4-1.8 2.5-3.7 3.3-5.7z"/></g><path d="m2523.4 2954.8-2.8 21.1c-1.4 1.8-3 3.5-5 5.1l2.8-21.1c1.9-1.7 3.6-3.3 5-5.1z" class="C"/><path d="m2518.4 2959.8-2.8 21.1c-2.1 1.7-4.5 3.3-7.2 4.8l2.8-21.1c2.7-1.4 5.1-3 7.2-4.8z" class="B"/></g><path d="m2511.1 2964.6-2.8 21.1-82.1 43.5 2.8-21.1z" class="B"/><g clip-path="url(#h)"><g class="B"><path d="m2429 3008.1-2.8 21.1c-.1.1-.2.1-.4.2l2.8-21.1c.2-.1.3-.2.4-.2z"/><path d="m2428.7 3008.2-2.8 21.1c-5.5 2.8-11.8 4.9-18.6 6.2l2.8-21.1c6.8-1.3 13.1-3.3 18.6-6.2z"/><path d="m2410.1 3014.4-2.8 21.1c-2.5.5-5.1.8-7.7 1.1l2.8-21.1c2.7-.2 5.2-.6 7.7-1.1z"/><path d="m2402.5 3015.5-2.8 21.1c-7.4.8-15.3.7-23.1-.2l2.8-21.1c7.8.9 15.6 1 23.1.2z"/><path d="m2379.4 3015.3-2.8 21.1c-4.1-.5-8.3-1.2-12.3-2.1l2.8-21.1c4 1 8.1 1.7 12.3 2.1z"/></g><path d="m2367.1 3013.3-2.8 21.1c-3.5-.8-7-1.7-10.3-2.9l2.8-21.1c3.3 1.1 6.7 2.1 10.3 2.9z" class="C"/><g class="B"><path d="m2356.7 3010.4-2.8 21.1c-3.3-1.1-6.5-2.4-9.5-3.8l2.8-21.1c3 1.4 6.2 2.7 9.5 3.8z"/><path d="m2347.2 3006.6-2.8 21.1c-3.2-1.5-6.2-3.1-9.1-4.9-.2-.2-.5-.3-.7-.5l2.8-21.1c.2.2.5.3.7.5 2.9 1.8 5.9 3.5 9.1 4.9z"/><path d="m2337.4 3001.3-2.8 21.1c-14.3-9.2-20.9-20.8-19.5-31.4l2.8-21.1c-1.5 10.6 5.1 22.1 19.5 31.4z"/></g></g><path d="m2416.9 2905.6c24.1-12.8 65.1-9.9 90.9 6.3 25.9 16.2 27.4 39.9 3.3 52.7l-82.1 43.5c-24.1 12.8-65 9.9-91-6.3-25.9-16.2-27.4-39.9-3.3-52.7z" class="D"/><g clip-path="url(#i)"><g class="B"><path d="m3080.6 2797.2-2.8 21.1c-.2 1.8-.7 3.6-1.5 5.4l2.8-21.1c.8-1.8 1.3-3.6 1.5-5.4z"/><path d="m3079.2 2802.5-2.8 21.1c-.8 2-1.9 3.9-3.3 5.7l2.8-21.1c1.4-1.8 2.5-3.7 3.3-5.7z"/></g><path d="m3075.9 2808.2-2.8 21.1c-1.4 1.8-3 3.5-5 5.1l2.8-21.1c1.9-1.6 3.6-3.3 5-5.1z" class="C"/><path d="m3070.9 2813.3-2.8 21.1c-2.1 1.7-4.5 3.3-7.2 4.8l2.8-21.1c2.7-1.5 5.1-3.1 7.2-4.8z" class="B"/></g><path d="m3063.6 2818-2.8 21.1-82.1 43.5 2.8-21.1z" class="B"/><path d="m2969.4 2759c24.1-12.8 65.1-9.9 91 6.3s27.4 39.9 3.2 52.7l-82.1 43.5c-24.1 12.8-65 9.9-90.9-6.3s-27.4-40-3.3-52.7z" class="D"/><g clip-path="url(#j)"><g class="B"><path d="m2981.5 2861.5-2.8 21.1c-.1.1-.2.1-.4.2l2.8-21.1c.2-.1.3-.2.4-.2z"/><path d="m2981.2 2861.7-2.8 21.1c-5.5 2.8-11.8 4.9-18.6 6.2l2.8-21.1c6.8-1.3 13.1-3.4 18.6-6.2z"/><path d="m2962.6 2867.8-2.8 21.1c-2.5.5-5.1.8-7.7 1.1l2.8-21.1c2.7-.2 5.2-.6 7.7-1.1z"/><path d="m2954.9 2868.9-2.8 21.1c-7.4.8-15.3.7-23.1-.2l2.8-21.1c7.9.9 15.7 1 23.1.2z"/><path d="m2931.9 2868.8-2.8 21.1c-4.1-.5-8.3-1.2-12.3-2.1l2.8-21.1c4 .9 8.1 1.6 12.3 2.1z"/></g><path d="m2919.5 2866.7-2.8 21.1c-3.5-.8-7-1.7-10.3-2.9l2.8-21.1c3.4 1.1 6.8 2.1 10.3 2.9z" class="C"/><g class="B"><path d="m2909.2 2863.8-2.8 21.1c-3.3-1.1-6.5-2.3-9.5-3.8l2.8-21.1c3.1 1.5 6.2 2.7 9.5 3.8z"/><path d="m2899.7 2860.1-2.8 21.1c-3.2-1.5-6.2-3.1-9.1-4.9-.2-.2-.5-.3-.7-.5l2.8-21.1c.2.2.5.3.7.5 2.9 1.8 5.9 3.4 9.1 4.9z"/><path d="m2889.9 2854.7-2.8 21.1c-14.4-9.2-21-20.8-19.5-31.4l2.8-21.1c-1.5 10.6 5.1 22.2 19.5 31.4z"/></g></g><g clip-path="url(#k)"><g class="B"><path d="m2867.5 2910-2.8 21.1c-.2 1.8-.7 3.6-1.5 5.4l2.8-21.1c.8-1.8 1.3-3.6 1.5-5.4z"/><path d="m2866.1 2915.4-2.8 21.1c-.8 2-1.9 3.8-3.3 5.7l2.8-21.1c1.3-1.9 2.4-3.8 3.3-5.7z"/></g><path d="m2862.7 2921-2.8 21.1c-1.4 1.8-3 3.5-5 5.1l2.8-21.1c2-1.6 3.7-3.3 5-5.1z" class="C"/><path d="m2857.8 2926.1-2.8 21.1c-2.1 1.7-4.5 3.3-7.2 4.7l2.8-21.1c2.7-1.4 5.1-3 7.2-4.7z" class="B"/></g><path d="m2850.6 2930.8-2.9 21.1-82.1 43.5 2.9-21.1z" class="B"/><path d="m2756.3 2871.8c24.1-12.8 65-9.9 91 6.3 25.9 16.2 27.4 39.9 3.3 52.7l-82.1 43.5c-24.1 12.8-65.1 9.9-90.9-6.3-25.9-16.2-27.4-40-3.3-52.7z" class="D"/><g clip-path="url(#l)"><g class="B"><path d="m2768.5 2974.3-2.8 21.1c-.1.1-.2.1-.4.2l2.8-21.1c.1-.1.2-.2.4-.2z"/><path d="m2768.1 2974.5-2.8 21.1c-5.5 2.8-11.8 4.9-18.6 6.2l2.8-21.1c6.8-1.3 13.1-3.4 18.6-6.2z"/><path d="M2749.5 2980.7l-2.8 21.1c-2.5.5-5.1.8-7.7 1.1l2.8-21.1 7.7-1.1z"/><path d="m2741.8 2981.8-2.8 21.1c-7.5.8-15.3.7-23.1-.2l2.8-21.1c7.8.9 15.7.9 23.1.2z"/><path d="m2718.7 2981.6-2.8 21.1c-4.1-.5-8.3-1.2-12.3-2.1l2.8-21.1c4.1.9 8.2 1.6 12.3 2.1z"/></g><path d="m2706.4 2979.5-2.8 21.1c-3.5-.8-6.9-1.7-10.3-2.9l2.8-21.1c3.3 1.2 6.8 2.1 10.3 2.9z" class="C"/><g class="B"><path d="m2696.1 2976.6-2.8 21.1c-3.3-1.1-6.5-2.3-9.5-3.8l2.8-21.1c3 1.5 6.2 2.7 9.5 3.8z"/><path d="m2686.6 2972.9-2.8 21.1c-3.2-1.5-6.2-3.1-9.1-4.9-.2-.2-.5-.3-.7-.5l2.8-21.1c.2.2.5.3.7.5 2.9 1.8 5.9 3.4 9.1 4.9z"/><path d="m2676.8 2967.6-2.8 21.1c-14.4-9.2-21-20.8-19.5-31.4l2.8-21.1c-1.5 10.5 5.1 22.1 19.5 31.4z"/></g></g><g clip-path="url(#m)"><g class="B"><path d="m2654.4 3022.8-2.8 21.1c-.2 1.8-.7 3.6-1.5 5.4l2.8-21.1c.8-1.8 1.3-3.6 1.5-5.4z"/><path d="m2653 3028.2-2.8 21.1c-.8 2-1.9 3.9-3.3 5.7l2.8-21.1c1.4-1.9 2.5-3.8 3.3-5.7z"/></g><path d="m2649.6 3033.8-2.8 21.1c-1.4 1.8-3 3.5-5 5.1l2.8-21.1c2-1.6 3.7-3.3 5-5.1z" class="C"/><path d="m2644.7 3038.9-2.8 21.1c-2.1 1.7-4.5 3.3-7.3 4.8l2.8-21.1c2.8-1.5 5.2-3.1 7.3-4.8z" class="B"/></g><path d="m2637.4 3043.7-2.8 21.1-82.1 43.4 2.8-21.1z" class="B"/><use xlink:href="#AH" x="-47.3" y="462.8" class="D"/><g clip-path="url(#n)"><g class="B"><path d="m2555.3 3087.1-2.8 21.1c-.1.1-.2.1-.4.2l2.8-21.1c.2-.1.3-.1.4-.2z"/><path d="m2555 3087.3-2.8 21.1c-5.5 2.8-11.8 4.9-18.6 6.2l2.8-21.1c6.8-1.3 13.1-3.4 18.6-6.2z"/><path d="M2536.4 3093.5l-2.8 21.1c-2.5.5-5.1.8-7.7 1.1l2.8-21.1 7.7-1.1z"/><path d="m2528.7 3094.6-2.8 21.1c-7.4.8-15.3.7-23.1-.2l2.8-21.1c7.9.9 15.7.9 23.1.2z"/><path d="m2505.7 3094.4-2.8 21.1c-4.1-.5-8.3-1.2-12.3-2.1l2.8-21.1c4 .9 8.1 1.6 12.3 2.1z"/></g><path d="m2493.3 3092.3-2.8 21.1c-3.5-.8-7-1.7-10.3-2.9l2.8-21.1c3.4 1.2 6.8 2.1 10.3 2.9z" class="C"/><g class="B"><path d="m2483 3089.4-2.8 21.1c-3.3-1.1-6.5-2.3-9.5-3.8l2.8-21.1c3.1 1.5 6.2 2.7 9.5 3.8z"/><path d="m2473.5 3085.7-2.8 21.1c-3.2-1.5-6.2-3.1-9.1-4.9-.2-.2-.5-.3-.7-.5l2.8-21.1c.2.2.5.3.7.5 2.9 1.8 5.9 3.4 9.1 4.9z"/><path d="m2463.7 3080.4-2.8 21.1c-14.4-9.2-21-20.8-19.5-31.4l2.8-21.1c-1.5 10.5 5.1 22.1 19.5 31.4z"/></g></g><g clip-path="url(#o)"><path d="m3242.3 2902.5-2.8 21.1c-.3 2.2-.9 4.4-1.8 6.5l2.8-21.1c.9-2.1 1.5-4.3 1.8-6.5z" class="F"/><path d="m3240.6 2909-2.8 21.1c-1 2.4-2.3 4.7-4 6.9l2.8-21.1c1.6-2.2 3-4.5 4-6.9z" fill="#1f8a40"/><path d="m3236.5 2915.9-2.8 21.1c-1.7 2.2-3.7 4.2-6 6.2l2.8-21.1c2.3-1.9 4.4-4 6-6.2z" fill="#208f42"/><use xlink:href="#AZ" class="G"/></g><g clip-path="url(#p)"><path d="M3023.3 2938.2l-2.8 21.1-.9-.6 2.8-21.1.9.6z" class="F"/><path d="m3022.4 2937.6-2.8 21.1c-17.4-11.2-25.4-25.3-23.7-38.1l2.8-21.1c-1.8 12.9 6.2 26.9 23.7 38.1z" fill="#1d803b"/></g><path d="m3221.7 2927.9-2.9 21.1-63.1 33.4 2.8-21.1z" fill="#25a44c"/><path d="m3048 2953.7-2.9 21.1-24.7-15.5 2.9-21.1z" fill="#208e41"/><use xlink:href="#Aa" fill="#00848a"/><g clip-path="url(#q)"><path d="m3158.5 2961.3-2.8 21.1c-.1.1-.3.1-.4.2l2.8-21.1c.1 0 .3-.1.4-.2z" class="G"/><path d="m3158.1 2961.5-2.8 21.1c-6.6 3.5-14.3 5.9-22.6 7.5l2.8-21.1c8.3-1.5 15.9-4 22.6-7.5z" fill="#239947"/><path d="m3135.5 2969-2.8 21.1c-3 .6-6.2 1-9.3 1.3l2.8-21.1c3.1-.2 6.3-.7 9.3-1.3z" fill="#249e49"/><path d="m3126.2 2970.4-2.8 21.1c-9.1.9-18.6.8-28.1-.2l2.8-21.1c9.5 1 19 1.1 28.1.2z" fill="#239947"/><path d="m3098.1 2970.2-2.8 21.1c-5-.6-10.1-1.4-15-2.5l2.8-21.1c4.9 1 10 1.9 15 2.5z" class="G"/><path d="m3083.1 2967.6-2.8 21.1c-4.3-1-8.5-2.1-12.5-3.5l2.8-21.1c4 1.4 8.2 2.6 12.5 3.5z" fill="#208f42"/><path d="m3070.6 2964.1-2.8 21.1c-4-1.3-7.9-2.9-11.6-4.6l2.8-21.1c3.7 1.8 7.6 3.3 11.6 4.6z" fill="#1f8a40"/><path d="m3059 2959.6-2.8 21.1c-3.9-1.8-7.5-3.7-11-5.9l2.8-21.1c3.4 2.1 7.1 4.1 11 5.9z" class="F"/></g><g clip-path="url(#r)"><path d="m3029.2 3015.3-2.8 21.1c-.3 2.2-.9 4.4-1.8 6.5l2.8-21.1c.9-2 1.5-4.2 1.8-6.5z" class="H"/><path d="m3027.4 3021.9-2.8 21.1c-1 2.4-2.3 4.7-4 6.9l2.8-21.1c1.7-2.2 3.1-4.5 4-6.9z" fill="#8f7302"/><path d="m3023.4 3028.8-2.8 21.1c-1.7 2.2-3.7 4.2-6 6.1l2.8-21.1c2.3-1.9 4.3-4 6-6.1z" fill="#947702"/><path d="m3017.4 3034.9-2.8 21.1c-2.5 2.1-5.5 4-8.8 5.8l2.8-21.1c3.3-1.8 6.2-3.7 8.8-5.8z" class="I"/></g><g clip-path="url(#s)"><path d="M2810.1 3051l-2.8 21.1-.9-.6 2.8-21.1c.3.3.6.4.9.6z" class="H"/><path d="m2809.2 3050.5-2.8 21.1c-17.4-11.2-25.4-25.3-23.7-38.1l2.8-21.1c-1.7 12.8 6.3 26.8 23.7 38.1z" fill="#856b02"/></g><path d="m3008.6 3040.7-2.8 21.1-63.2 33.4 2.8-21.1z" fill="#a98903"/><path d="m2834.8 3066.5-2.8 21.1-24.7-15.5 2.8-21.1z" fill="#927602"/><path d="m2869.4 2953.5c29.3-15.5 79-12.1 110.5 7.6l24.7 15.5c31.5 19.7 33.3 48.5 4 64l-63.2 33.5c-29.3 15.5-79 12.1-110.5-7.6l-24.7-15.5c-31.5-19.7-33.3-48.5-4-64z" fill="#ff9a00"/><g clip-path="url(#t)"><path d="m2945.4 3074.1-2.8 21.1c-.1.1-.3.1-.4.2l2.8-21.1c.1 0 .2-.1.4-.2z" class="I"/><path d="m2945 3074.4-2.8 21.1c-6.6 3.5-14.3 5.9-22.6 7.5l2.8-21.1c8.2-1.6 15.9-4.1 22.6-7.5z" fill="#9e8002"/><path d="M2922.4 3081.9l-2.8 21.1c-3 .6-6.2 1-9.3 1.3l2.8-21.1 9.3-1.3z" fill="#a38403"/><path d="m2913 3083.2-2.8 21.1c-9.1.9-18.6.8-28.1-.2l2.8-21.1c9.6 1 19.1 1.1 28.1.2z" fill="#9e8002"/><path d="m2885 3083-2.8 21.1c-5-.6-10.1-1.4-15-2.5l2.8-21.1c4.9 1.1 9.9 1.9 15 2.5z" class="I"/><path d="m2870 3080.5-2.8 21.1c-4.3-1-8.5-2.1-12.5-3.5l2.8-21.1c4 1.3 8.2 2.5 12.5 3.5z" fill="#947702"/><path d="m2857.4 3077-2.8 21.1c-4-1.3-7.9-2.9-11.6-4.6l2.8-21.1c3.8 1.7 7.7 3.2 11.6 4.6z" fill="#8f7302"/><path d="m2845.9 3072.4-2.8 21.1c-3.9-1.8-7.5-3.7-11-5.9l2.8-21.1c3.4 2.2 7.1 4.1 11 5.9z" class="H"/></g><g clip-path="url(#u)"><path d="m2816.1 3128.1-2.8 21.1c-.3 2.2-.9 4.4-1.8 6.5l2.8-21.1c.9-2.1 1.5-4.3 1.8-6.5z" class="J"/><path d="m2814.4 3134.7-2.8 21.1c-1 2.4-2.3 4.7-4 6.9l2.8-21.1c1.6-2.2 3-4.6 4-6.9z" fill="#8e3329"/><path d="m2810.3 3141.6-2.8 21.1c-1.7 2.2-3.7 4.2-6 6.2l2.8-21.1c2.3-2 4.4-4.1 6-6.2z" fill="#93352b"/><path d="m2804.3 3147.7-2.8 21.1c-2.5 2.1-5.5 4-8.8 5.8l2.8-21.1c3.3-1.8 6.2-3.7 8.8-5.8z" class="K"/></g><g clip-path="url(#v)"><path d="M2597.1 3163.8l-2.8 21.1-.9-.6 2.8-21.1c.3.3.6.4.9.6z" class="J"/><path d="m2596.2 3163.3-2.8 21.1c-17.4-11.2-25.4-25.3-23.7-38.1l2.8-21.1c-1.8 12.8 6.2 26.8 23.7 38.1z" fill="#842f26"/></g><path d="m2795.5 3153.5-2.9 21.1-63.1 33.4 2.8-21.1z" fill="#a83c31"/><path d="m2621.8 3179.3-2.9 21.1-24.7-15.5 2.9-21.1z" fill="#91342a"/><use xlink:href="#Aa" x="-426.2" y="225.7" fill="#ef4d8c"/><g clip-path="url(#w)"><path d="m2732.3 3186.9-2.8 21.1c-.1.1-.3.1-.4.2l2.8-21.1c.1 0 .3-.1.4-.2z" class="K"/><path d="m2731.9 3187.2-2.8 21.1c-6.6 3.5-14.3 5.9-22.6 7.5l2.8-21.1c8.3-1.6 15.9-4.1 22.6-7.5z" fill="#9d382e"/><path d="M2709.3 3194.7l-2.8 21.1c-3 .6-6.2 1-9.3 1.3l2.8-21.1 9.3-1.3z" fill="#a23a2f"/><path d="m2700 3196-2.8 21.1c-9.1.9-18.6.8-28.1-.2l2.8-21.1c9.5 1 19 1.1 28.1.2z" fill="#9d382e"/><path d="m2671.9 3195.8-2.8 21.1c-5-.6-10.1-1.4-15-2.5l2.8-21.1c4.9 1.1 10 1.9 15 2.5z" class="K"/><path d="m2656.9 3193.3-2.8 21.1c-4.3-1-8.5-2.1-12.5-3.5l2.8-21.1c4 1.3 8.2 2.5 12.5 3.5z" fill="#93352b"/><path d="m2644.4 3189.8-2.8 21.1c-4-1.3-7.9-2.9-11.6-4.6l2.8-21.1c3.7 1.7 7.6 3.2 11.6 4.6z" fill="#8e3329"/><path d="m2632.8 3185.2-2.8 21.1c-3.9-1.8-7.5-3.7-11-5.9l2.8-21.1c3.4 2.2 7.1 4.1 11 5.9z" class="J"/></g><path d="M921.3 3058.5c-96.7 22.5-194.1-38.2-216.6-134.9l-48.2-207.3c-22.5-96.7 38.2-194.1 134.9-216.6s194.1 38.2 216.6 134.9l48.2 207.3c22.4 96.7-38.3 194.1-134.9 216.6zM417.1 1455.9l617.2-259.2s80.4.9 8.2 27c-72.1 26.2-632.9 276.7-625.4 232.2zm152.9 59c-31.7-33.4 212.2-106.6 219.6-96.2s-213.4 102.8-219.6 96.2zm76 69.7c9.1 18.4 361.3-143.5 353.9-153.9-7.3-10.4-364.8 131.9-353.9 153.9zm440.8-201.3c11.7 38.6 147.1-57.3 147.1-57.3s-152.9 38-139.7 67.7-11.1-22.6-7.4-10.4zM728.4 1703c10.6-35 611.7-291.2 615.2-279.7 3.5 11.7-623.6 307.6-615.2 279.7zm73.6 62c2.3 17.9 259.9-74.7 256.7-99.1-3.1-24.3-259.8 74.8-256.7 99.1zm53 118.9c15.3 19.2 269.1-86 263.3-105.3-5.9-19.3-276.9 88.3-263.3 105.3zm321.9-148.4c16.9 17.8 294.3-72.5 278.4-97.2-16-24.7-297 77.6-278.4 97.2zm-40 159.8c6 11.2-163.6 100.3-191.4 91.9-27.9-8.4 181.6-110 191.4-91.9z" class="E"/><path d="m3388.8 3207.6-539.3 359c-10 6.6-23.5 3.9-30.1-6l-.5-.8c-6.6-10-3.9-23.5 6-30.1l539.3-359c10-6.6 23.5-3.9 30.1 6l.5.8c6.7 9.9 4 23.5-6 30.1z" fill="#224e8d"/><defs ><path id="y" d="m2488.6 2607.3 2.8-21.1c-1.4 10.8 5.4 22.5 20.3 31.9 25.9 16.2 66.8 19 90.9 6.3l-2.8 21.1c-24.1 12.8-65 9.9-90.9-6.3-14.9-9.4-21.7-21.2-20.3-31.9z"/><path id="z" d="m2828 2639.1-2.8 21.1c-1.1 8-6.7 15.4-17 20.9l2.8-21.1c10.3-5.5 16-12.9 17-20.9z"/><path id="AA" d="M2941.365 1970.63l-226.52-92.594 38.786-94.884 226.52 92.594z"/><path id="AB" d="m2416.9 2391.2c14.7-7.8 39.7-6.1 55.5 3.8l28.6 17.9c15.8 9.9 16.7 24.4 2 32.2l-37.9 20.1c-14.7 7.8-39.7 6-55.5-3.9l-28.6-17.9c-15.8-9.9-16.7-24.3-2-32.1z"/><path id="AC" d="M2453.6 2469.1l-2.8 21.1c-1.5.3-3.1.5-4.7.7l2.8-21.1 4.7-.7z"/><path id="AD" d="m2701.7 2560-2.8 21.1c-.2 1.8-.7 3.6-1.5 5.4l2.8-21.1c.8-1.8 1.3-3.6 1.5-5.4z"/><path id="AE" d="m2700.2 2565.4-2.8 21.1c-.8 2-1.9 3.9-3.3 5.7l2.8-21.1c1.4-1.9 2.5-3.8 3.3-5.7z"/><path id="AF" d="m2696.9 2571-2.8 21.1c-1.4 1.8-3 3.5-5 5.1l2.8-21.1c2-1.6 3.7-3.3 5-5.1z"/><path id="AG" d="m2692 2576.1-2.8 21.1c-2.1 1.7-4.5 3.3-7.2 4.8l2.8-21.1c2.7-1.5 5.1-3.1 7.2-4.8z"/><path id="AH" d="m2590.5 2521.9c24.1-12.8 65.1-9.9 91 6.3s27.4 39.9 3.2 52.7l-82.1 43.5c-24.1 12.8-65 9.9-90.9-6.3s-27.4-39.9-3.3-52.7z"/><path id="AI" d="m2602.6 2624.3-2.8 21.1c-.1.1-.2.1-.4.2l2.8-21.1c.2-.1.3-.1.4-.2z"/><path id="AJ" d="m2602.3 2624.5-2.8 21.1c-5.5 2.8-11.8 4.9-18.6 6.2l2.8-21.1c6.8-1.3 13.1-3.4 18.6-6.2z"/><path id="AK" d="M2583.7 2630.7l-2.8 21.1c-2.5.5-5.1.8-7.7 1.1l2.8-21.1 7.7-1.1z"/><path id="AL" d="m2552.9 2631.6-2.8 21.1c-4.1-.5-8.3-1.2-12.3-2.1l2.8-21.1c4.1.9 8.2 1.6 12.3 2.1z"/><path id="AM" d="m2540.6 2629.5-2.8 21.1c-3.5-.8-7-1.7-10.3-2.9l2.8-21.1c3.4 1.2 6.8 2.1 10.3 2.9z"/><path id="AN" d="m2520.8 2622.9-2.8 21.1c-3.2-1.5-6.2-3.1-9.1-4.9-.2-.2-.5-.3-.7-.5l2.8-21.1c.2.2.5.3.7.5 2.9 1.8 5.9 3.4 9.1 4.9z"/><path id="AO" d="m2511 2617.6-2.8 21.1c-14.4-9.2-21-20.8-19.5-31.4l2.8-21.1c-1.5 10.5 5.1 22.1 19.5 31.4z"/><path id="AP" d="m2339.8 2744.4-2.8 21.1c-4.1-.5-8.3-1.2-12.3-2.1l2.8-21.1c4 .9 8.2 1.6 12.3 2.1z"/><path id="AQ" d="m2176.1 2850.1-2.8 21.1c-5.5 2.8-11.8 4.9-18.6 6.2l2.8-21.1c6.8-1.3 13.1-3.3 18.6-6.2z"/><path id="AR" d="m2094.6 2848.5-2.8 21.1c-3.2-1.5-6.2-3.1-9.1-4.9-.2-.2-.5-.3-.7-.5l2.8-21.1c.2.2.5.3.7.5 2.9 1.8 5.9 3.5 9.1 4.9z"/><path id="AS" d="m2826.6 2644.4-2.8 21.1c-.8 2-1.9 3.9-3.3 5.7l2.8-21.1c1.4-1.8 2.5-3.7 3.3-5.7z"/><path id="AT" d="m2823.3 2650.1-2.8 21.1c-1.4 1.8-3 3.5-5 5.1l2.8-21.1c1.9-1.6 3.6-3.3 5-5.1z"/><path id="AU" d="m2710 2709.7-2.8 21.1c-2.5.5-5.1.8-7.7 1.1l2.8-21.1c2.7-.2 5.2-.6 7.7-1.1z"/><path id="AV" d="m2702.4 2710.8-2.8 21.1c-7.4.8-15.3.7-23.1-.2l2.8-21.1c7.8.9 15.6 1 23.1.2z"/><path id="AW" d="m2637.3 2696.6-2.8 21.1c-14.4-9.2-21-20.8-19.5-31.4l2.8-21.1c-1.5 10.6 5.1 22.2 19.5 31.4z"/><path id="AX" d="m2605.2 2768-2.8 21.1c-2.1 1.7-4.5 3.3-7.2 4.7l2.8-21.1c2.7-1.4 5.1-3 7.2-4.7z"/><path id="AY" d="m2466.2 2823.5-2.8 21.1c-4.1-.5-8.3-1.2-12.3-2.1l2.8-21.1c4 .9 8.1 1.6 12.3 2.1z"/><path id="AZ" d="m3230.5 2922.1-2.8 21.1c-2.5 2.1-5.5 4-8.8 5.8l2.8-21.1c3.3-1.8 6.2-3.7 8.8-5.8z"/><path id="Aa" d="m3082.4 2840.7c29.3-15.5 79.1-12.1 110.6 7.6l24.7 15.5c31.5 19.7 33.3 48.5 3.9 64.1l-63.2 33.4c-29.3 15.5-79 12.1-110.5-7.6l-24.7-15.5c-31.5-19.7-33.3-48.5-4-64z"/></defs></svg>