<svg xmlns="http://www.w3.org/2000/svg" xmlns:xlink="http://www.w3.org/1999/xlink" viewBox="0 0 4000 4000"  xmlns:v="https://vecta.io/nano"><style><![CDATA[.B{clip-path:url(#L)}.C{clip-path:url(#M)}.D{fill:#df9483}.E{fill:#4d4d4d}]]></style><linearGradient id="A" gradientUnits="userSpaceOnUse"><stop offset="0" stop-color="#ffa084"/><stop offset=".282" stop-color="#ffc2ab"/><stop offset=".632" stop-color="#ffc7b3"/></linearGradient><linearGradient id="B" x1="1997.401" x2="2029.597"  xlink:href="#A" y1="2652.309" y2="1883.163"/><linearGradient id="C" gradientUnits="userSpaceOnUse"><stop offset=".153" stop-color="#dfe7ea"/><stop offset=".926" stop-color="#fff"/></linearGradient><linearGradient id="D" x1="2174.298" x2="2424.435"  xlink:href="#C" y1="3036.53" y2="2766.098"/><linearGradient id="E" gradientUnits="userSpaceOnUse" x1="2106.87" x2="2751.313" y1="2805.175" y2="2805.175"><stop offset=".129" stop-color="#33597c"/><stop offset="1" stop-color="#063869"/></linearGradient><linearGradient id="F" gradientUnits="userSpaceOnUse" x1="2901.044" x2="2891.437" y1="65.22" y2="1460.526"><stop offset=".395" stop-color="#844e3b"/><stop offset=".709" stop-color="#602916"/></linearGradient><linearGradient id="G" x1="2842.594" x2="2992.71"  xlink:href="#A" y1="2588.866" y2="2069.62"/><linearGradient id="H" x1="2984.156" x2="2857.798"  xlink:href="#A" y1="1790.628" y2="2615.838"/><linearGradient id="I" gradientUnits="userSpaceOnUse" x1="2541.026" x2="2819.931" y1="1863.523" y2="898.795"><stop offset=".368" stop-color="#ffc7b3"/><stop offset=".718" stop-color="#ffc2ab"/><stop offset="1" stop-color="#ffa084"/></linearGradient><linearGradient id="J" x1="3208.614" x2="3284.792"  xlink:href="#A" y1="1426.121" y2="1162.622"/><linearGradient id="K" gradientUnits="userSpaceOnUse" x1="2753.244" x2="2748.162" y1="452.037" y2="1190.153"><stop offset=".247" stop-color="#844e3b"/><stop offset=".709" stop-color="#602916"/></linearGradient><clipPath id="L"><ellipse cx="2481.5" cy="1505.8" rx="103.4" ry="85.9"/></clipPath><clipPath id="M"><ellipse cx="3015.3" cy="1439.9" rx="103.4" ry="85.9"/></clipPath><linearGradient id="N" gradientUnits="userSpaceOnUse" x1="3207.242" x2="3350.095" y1="1105.323" y2="1343.651"><stop offset=".016" stop-color="#969696"/><stop offset=".515" stop-color="#666"/><stop offset=".894" stop-color="#4d4d4d"/></linearGradient><linearGradient id="O" gradientUnits="userSpaceOnUse" x1="2697.313" x2="3359.241" y1="830.533" y2="830.533"><stop offset="0" stop-color="#8c8c8c"/><stop offset=".224" stop-color="#878787"/><stop offset=".484" stop-color="#797979"/><stop offset=".718" stop-color="#666"/></linearGradient><radialGradient id="P" cx="2924.691" cy="1240.477" fx="2891.598" fy="1255.892" gradientTransform="matrix(.9122 0 0 .9115 466.08 51.3514)" gradientUnits="userSpaceOnUse" r="227.201"><stop offset="0" stop-color="#bdbdbd"/><stop offset=".131" stop-color="#b8b8b8"/><stop offset=".284" stop-color="#aaa"/><stop offset=".448" stop-color="#939393"/><stop offset=".551" stop-color="gray"/></radialGradient><radialGradient id="Q" cx="3310.775" cy="1257.279" fx="3210.02" fy="1223.064" gradientUnits="userSpaceOnUse" r="115.678"><stop offset=".073" stop-color="#b0b0b0"/><stop offset=".206" stop-color="#ababab"/><stop offset=".361" stop-color="#9d9d9d"/><stop offset=".527" stop-color="#868686"/><stop offset=".647" stop-color="#707070"/></radialGradient><linearGradient id="R" x1="2917.32" x2="2917.32"  xlink:href="#C" y1="2930.639" y2="2357.582"/><linearGradient id="S" gradientUnits="userSpaceOnUse" x1="3050.218" x2="3038.501" y1="3712.691" y2="2023.289"><stop offset=".094" stop-color="#063869"/><stop offset=".591" stop-color="#33597c"/></linearGradient><linearGradient id="T" x1="2408.802" x2="2496.134"  xlink:href="#A" y1="3642.592" y2="3340.51"/><linearGradient id="U" gradientUnits="userSpaceOnUse" x1="2851.266" x2="2886.923" y1="3312.345" y2="3596.539"><stop offset=".074" stop-color="#fff"/><stop offset=".847" stop-color="#dfe7ea"/></linearGradient><path d="M2180.9 3701.3L1133.8 3428l480.3-76.4 998.1 226.9z" fill="#b3b3b3"/><path d="m2181.6 3721-1048.1-277.5.5-15.4 1047.7 270.2z" fill="#969696"/><path d="m2611.8 3587.7-431.5 133.2-.5-23.2 432.3-119.2z" fill="#7c7c7c"/><g fill="#fff"><path d="m2182.6 3657.7-.8-.2-899.3-222.8 1.5-6.3 898.5 222.5 282.9-78.2 1.7 6.3z"/><path d="M1351.5 3421.536l1.622-6.294 882.896 227.585-1.622 6.294zm75.395-11.676l1.6-6.303 864.585 217.907-1.6 6.303zm52.247-15.428l1.564-6.3 873.25 216.468-1.564 6.3zm64.908-8.282l1.453-6.336 886.5 203.273-1.453 6.336z"/></g><g class="E"><path d="M1454.2 3426.3l-19.5-4.9-48.3 9.8 19.5 5zm-136.9 19l19.6 4.9 49.2-10-19.6-4.9zm210-33.8l-19.5-5-53.3 10.9 19.6 4.9zm147.3-30l-.3-1.2-17.2-4.1-83.2 16.9 20.6 4.7zm-100.9 20.5l-20.6-4.7-25.5 5.2 19.6 4.9zm-29.9 38l51.4-11.3-19-4.8-51.3 11.3zm79.7-26.5l-28.1 6.1 18.9 4.8 29.2-6.4zm118-17l-19.4-4.7-78.5 17.3 19.9 4.5zm-263.5 57.9l46.6-10.2-18.9-4.8-46.6 10.2zm-85.5 9.9l19 4.7 47.4-10.4-19-4.8zm161.5 9.3l46.6-10.2-19-4.8-46.6 10.2zm149.5-41.8l-32.2 7.1 19 4.8 33.2-7.4zm-83.7 27.4l51.3-11.3-18.9-4.8-51.4 11.3zm-151.1 24.2l18.9 4.8 47.2-10.4-18.9-4.8zm350.8-68.2l-19.5-4.6-76.4 16.8 19.9 4.5zm-272.4 86.9l.3 1.2 16.8 4.2 48.3-10-19.4-4.9zm243.4-50.4l-37.7 7.8 19.5 4.9 38.7-8zm-90.7 27.7l52.8-10.9-19.4-4.9-52.8 10.9zm-67.6 14l47.9-9.9-19.4-4.9-48 9.9zm179.1-46h-.2l.2.1zm-27 53.4l49.4-11.8-18.3-4.6-49.5 11.8zm-63.3 15.1l44.8-10.7-18.3-4.7-44.9 10.7zm-81.9 10.5l18.4 4.6 45-10.7-18.3-4.7zm234-55.8l-39.3 9.4 18.4 4.6 40.2-9.6zm-60.1 68.5l43.2-11.1-17.8-4.5-43.2 11.2zm61-15.6l47.6-12.3-17.8-4.5-47.6 12.3zm89.7-32.1l-42.1 10.8 17.8 4.5 43-11.1zm-229.5 58.9l17.8 4.5 43.2-11.1-17.8-4.5zm330.8-35.8l-45 12.6 17.2 4.3 45.8-12.7zm-224.7 62.5l17.2 4.4 41.2-11.5-17.1-4.3zm134.1-28.1l45.7-12.7-17.2-4.4-45.7 12.7zm185.8-51.7l-17.6-4.2-59.8 16.6 18 4.1zm-244.4 68l41.5-11.6-17.2-4.3-41.5 11.5zm235.4-30.9l-46.6 14.2 16.5 4.1 47.4-14.4zm-217.6 66.3l16.5 4.1 39.2-11.9-16.6-4.2zm306.4-84.2l-16.9-4-55.1 16.7 17.3 4zm-178.7 54.5l43.6-13.3-16.6-4.2-43.5 13.3zm-55.8 17l39.5-12.1-16.5-4.2-39.5 12.1zm143.8 5.2l43.1-13.4-16.4-4.1-43 13.4zm178.5-55.5l-16.8-4.1-52.4 16.4 17.1 3.9zm-304.5 85.6l16.4 4.1 38.5-12-16.4-4.1zm71-12.9l39-12.1-16.4-4.2-39 12.2zm147.7-55.2l-49.9 15.5 16.3 4.1 50.6-15.7zm-89.8 69.9l16.8 4.2 40.3-11.8-16.8-4.3zm173-50.9l-55.1 16.2 16.7 4.3 56-16.5zm-229.2 67.4l16.9 4.2 39.5-11.6-16.8-4.3zm315.9-83.7l-17.1-4.1-52.4 15.4 17.6 4zm-202.8 50.5l16.8 4.2 44.4-13.1-16.8-4.2z"/><path d="M1623.5 3413.5l20 4.5 60 13.8 20 4.5 87.5 20.1 602.6 137.9 17.6-4.9-245.9-56.3-17.3-4-67.2-15.4-18-4.1-185.7-42.5-4.7-1.1-81.3-18.6-67.6-15.5-19.9-4.5-60.1-13.8-19.9-4.5-49.1-11.3-66-15.1-21.6 4.1 46.2 10.5 20.6 4.7zm584.9 161.2l-16.3-4.1-71-18-16.5-4.1-67.4-17.1-17.2-4.3-536.9-135.9-20.6 3.9 45.3 11.4 19.5 5 808.8 204.6 17-4.8-66.3-16.7-16.7-4.3zm-59.1 18.4l-16.3-4.1-725.7-183.6-20.6 3.9 67.5 17 70.4 17.9 76 19.2 79.5 20.1 67.4 17 18.3 4.7 90.4 22.8 83.9 21.3 17.2 4.3 316.4 80.1 17-4.8-81.6-20.6zm-55 17.2l-16.4-4.1-741.3-187.6-20.6 3.9 50.5 12.8 19.6 4.9 829.3 209.8 17-4.7-63.4-16.1-16.8-4.2z"/><path d="m2175.9 3666.6-930.8-234.5 372.1-65.4 1.2.3 882.6 208.2zm-890-233.2 889.8 224.2 290.5-81.6-849.4-200.2z"/></g><path d="M2357.8 2919.6l-135.8-274s81.1-171.4 27-254.2c-111.5-170.8-63.9-276.1-103-271s-73.5 28.3-67.3 72.9 73.9 182.5 73.9 182.5l-118.9-86.2-196.3-162.5c-31.2-31.4-134.4-74.3-178.5-35.9-65.3 57 186.3 362 186.3 362s85.3 215.9 174.2 237c52.9 12.5 101.7 160.9 101.7 160.9l79.3 200.8z" fill="url(#B)"/><g class="D"><path d="M1866.8 2422.6c-2.2 0-4.3-.9-5.8-2.7-2.6-3.2-2.2-7.9 1-10.6 1.2-.9 115.4-95.2 148.7-121.1 3.3-2.5 8-2 10.5 1.3s2 8-1.3 10.5c-33.2 25.8-147.3 119.9-148.4 120.8-1.3 1.2-3 1.8-4.7 1.8zm258.4 185.7c-2.7 0-5.3-1.4-6.6-4-43.2-81.2-149.1-121.5-194.3-138.7-20.1-7.7-24.3-9.3-25.6-14.7-1-4 1.5-8.1 5.5-9.1 2.9-.7 5.7.3 7.5 2.4 2.5 1.4 10.3 4.4 17.9 7.3 46.8 17.8 156.3 59.5 202.2 145.6 1.9 3.7.6 8.2-3.1 10.1-1.1.8-2.3 1.1-3.5 1.1z"/><path d="M1892.4 2401.5c-1.9 0-3.9-.7-5.3-2.2-5.3-5.4-130.4-131.7-145.1-159.7-13.6-25.9-59.4-69.9-59.8-70.4-3-2.9-3.1-7.6-.2-10.6s7.6-3.1 10.6-.2c2 1.9 48 46.2 62.7 74.2 11.4 21.6 106.7 120 142.5 156.1 2.9 2.9 2.9 7.7 0 10.6-1.6 1.5-3.5 2.2-5.4 2.2zm48.6-39.8a7.63 7.63 0 0 1-5.1-2l-95.5-89c-2.5-2.4-61.3-59.6-82-90.8-19.3-29.3-74-64.7-74.5-65.1-3.5-2.2-4.5-6.9-2.2-10.4 2.2-3.5 6.9-4.5 10.4-2.2 2.4 1.5 57.9 37.5 78.9 69.4 19.5 29.5 77.8 86.3 79.8 88.3l95.3 88.8c3 2.8 3.2 7.6.4 10.6-1.5 1.6-3.5 2.4-5.5 2.4zm48.7-41.5c-1.7 0-3.5-.6-4.9-1.8l-74.4-64.2c-5.2-4-79.1-60.6-94.9-82.8-15.2-21.2-63.5-74.1-64-74.7-2.8-3.1-2.6-7.8.5-10.6s7.8-2.6 10.6.5c2 2.2 49.5 54.1 65.2 76.1 12.3 17.2 70.6 63.4 92 79.8a1.38 1.38 0 0 0 .4.3l74.5 64.4c3.1 2.7 3.5 7.4.8 10.6-1.7 1.5-3.7 2.4-5.8 2.4z"/></g><path d="m2078.3 2957.6 229.6-202.9 108.4 202.9-234.3 135.7z" fill="url(#D)"/><path d="m2751.3 3026.9-109.2-886.3s-91.2 48.7-102.8 128.1c-6.9 47.3-13.5 326.3-5.9 369.1 17.5 99-43.7 327.7-53.2 391.1-93.7-138.3-122.5-251.3-122.5-251.3l-250.9 237s86 118.8 141.4 257.4 112.5 198.9 281.1 197.7c0 0 103.2-37.4 108.5-139.3z" fill="url(#E)"/><path d="m3094.4 560.5s188.9-2.6 280.4 217.8c85.8 206.8 88.8 421.6.1 629.7-97.2 228-207.6 291.7-207.6 291.7v43.8s350 190 446 474.1l-72.8 136.5s-424.7-201.4-460-412.5 9-171.7 9-171.7l-8.2-188.3-173.6-917.9-637.9 552.4s-256-158.8 41.2-477.8c123.4-132.5 256.2-180.5 386.3-219 155.2-45.8 314.4-38.6 397.1 41.2z" fill="url(#F)"/><path d="m2831.3 1987.3c-48.6 111.7-101.4 252.2-101.4 367.4 0 120 87.6 220.2 87.6 220.2s160.8-38.7 252.5-166.2 103.5-299.5 93.9-497.2z" fill="url(#G)"/><path d="m2776.9 1832.1s27.3 89 42.9 205.6c23 172.9-2.3 179.9-2.3 179.9s13.3 176.9 177 76.5 170.4-403 170.4-403-41.1-99.7-37.9-241.6z" fill="url(#H)"/><path d="M2267 1229.7c3 14.1 69.3 160 105.3 288s130.3 284.3 308 367.5c0 0 73.2 56.5 194.1 3.5C2992.3 1837 3110 1685.1 3158 1560s63.4-190.3 43.4-350.3-140-656-484-552-526.4 212-450.4 572z" fill="url(#I)"/><path d="m3191.6 1148.5 4.5-32 14.2-15.7s51-67 107-31 72 112 44 176-72 152-104 172-72.3 4-76.1-36z" fill="url(#J)"/><path d="m2249.9 868.3s-107.3 236.9 55.3 457.4c0 0-88.3-97.5 88.1-193.4s502.6-228 549.5-413.9c0 0-193.1 353.9-427 413.9 0 0 363.8-78 505.8-329.9 0 0-37.1 225.9 83.7 351.4 0 0-47.7-116.2-18.5-176.2 0 0-10.3 123.4 76 265.1l23 36.5s163.1-195 67.5-398.9-326.4-365.9-556-311.9c-229.5 54-353.3 138-447.4 299.9z" fill="url(#K)"/><path d="M2257.8 1202.9l-9.6-24.4c36.7-181 207.8-248 410.7-311.1 137.8-42.8 228.8-94.8 280.8-130.8 56.4-39 80.5-68.2 80.8-68.5l15.4 12.5c-1 1.3-25.6 31.2-83.9 71.6-53.3 37-146.4 90.3-287.2 134.1-196.8 61.1-372.4 146.2-407 316.6zM2181 981.7l-1.6-26c29-65.9 62.6-106.2 132.6-155.3 61.2-42.9 124.4-69.5 166.6-84.3 88.3-30.8 496.5-112.1 513.9-115.5l3.9 19.4c-4.2.8-424.2 84.4-511.2 114.8-69.5 24.3-238.4 97-304.2 246.9zm992.6 124.4c-26.5-42.1-47.9-91.1-63.4-145.6-12.4-43.5-21.2-90.5-26.1-139.9-8.3-84-2.7-144.8-2.4-147.4l19.7 1.9c-.1.6-5.7 61.8 2.5 143.9 7.5 75.5 28.6 184.7 86.5 276.4zm120.2-32.5c-60.4-18.4-107-101.5-138.5-247.2-23-106.4-29.4-209.1-29.4-210.1l19.8-1.2c.1 1 6.3 102.4 29.1 207.3 29.5 136 72.7 216.3 124.9 232.2zm-1094.6 49.2l-11.5-24.3c11.9-214.7 217.6-236.1 373.8-268.7l35.7-7.6c153.9-33.5 389.5-185.4 391.9-186.9l10.8 16.6c-.6.4-60.7 39.2-139.2 81.7-105.8 57.2-193 93.6-259.3 108l-35.9 7.6c-78.3 16.3-167 34.9-238.3 74.9-81.2 45.4-123.1 110.5-128 198.7zm1222.1 16.9h-19.8c0-209-64.5-326.3-118.7-387.3-58.4-65.8-117.7-82.6-118.3-82.8l5.2-19.1c2.6.7 64.6 18.1 126.9 87.7 36.3 40.6 65.2 90.5 85.9 148.7 25.7 72.4 38.8 157.8 38.8 252.8z" fill="#592424"/><path d="M2636.3 1418.7c-7.3 30.5-16.8 51.1-26 67.8l-9.1 16.7s20 16.8 39.4 25.7c19.3 8.9 40.3 36.2 40.3 36.2s7.7-32.5-12.3-49.3-24.7-40.2-24.7-40.2 29.3-52.2 16-82.8-21.6-20-21.6-20 5.3 15.5-2 45.9z" class="D"/><path d="m2483.9 1332.3c8.7 51.2 37.9 90.1 65.3 86.7 27.3-3.3 42.4-47.6 33.7-98.8s-37.9-90.1-65.3-86.7c-27.3 3.4-42.4 47.6-33.7 98.8z"/><path d="m2617.1 1626.5s39.3 21 132.2 0 140.7-44.8 140.7-44.8 0 136.3-111.3 150.2c-92.3 11.5-161.6-105.4-161.6-105.4z" fill="#f35f5f"/><path d="M2952.8 1117.7c-7.4 0-13.2-5.8-13.2-13.1 0-.2-.1-18.6-7-37.7-8.4-23.2-22.8-36.5-43-39.8-25.5-4.1-46.8 6.2-63.5 30.6-13.6 19.9-18.9 41.9-19 42.1-1.7 7.1-8.8 11.5-15.9 9.8s-11.5-8.8-9.8-15.8c.2-1.1 6.3-26.3 22.4-50.3 22.6-33.6 53.7-48.3 90-42.5 30.2 4.9 52.2 24.8 63.9 57.7 8.3 23.3 8.3 45 8.2 45.9.1 7.4-5.8 13.1-13.1 13.1zm-538.8 75.9c-6.3 0-11.9-4.6-13-11-.2-1.1-4.3-26.7 1.4-55 8-39.7 31.1-65.2 66.8-73.7 36.9-8.8 60.7 4.3 74.2 16.9 14.1 13.2 19.6 28.1 20.2 29.8 2.4 6.9-1.2 14.4-8.1 16.8s-14.4-1.2-16.8-8.1c0 0-4-10.9-13.9-19.8-12.6-11.3-29.2-14.7-49.3-9.9-25.1 6-40.9 23.7-46.9 52.6-4.9 23.6-1.4 45.9-1.4 46.2 1.2 7.2-3.7 14-10.9 15.1-.9 0-1.6.1-2.3.1z" fill="#7f5757"/><g fill="#ffc7b3"><path d="m2378.1 1419.9h206.7v171.8h-206.7z" class="B"/><path d="m2583.7 1509.2c0 25.6-10.4 48.8-27.2 65.6-8.4 8.4-18.4 15.2-29.5 19.9v-2h-72.3v2c-11.1-4.7-21.1-11.5-29.5-19.9-16.8-16.8-27.2-40-27.2-65.6 0-51.3 41.6-92.8 92.8-92.8 51.3-.1 92.9 41.5 92.9 92.8z" class="B"/></g><circle cx="2490.9" cy="1509.2" fill="#ffc6b2" r="90" class="B"/><circle cx="2490.9" cy="1509.2" fill="#ffc6b1" r="87.1" class="B"/><path d="m2575.2 1509.2c0 46.5-37.7 84.3-84.3 84.3-46.5 0-84.3-37.7-84.3-84.3 0-46.5 37.7-84.3 84.3-84.3 46.5 0 84.3 37.7 84.3 84.3z" fill="#ffc5b0" class="B"/><circle cx="2490.9" cy="1509.2" fill="#ffc4ae" r="81.4" class="B"/><circle cx="2490.9" cy="1509.2" fill="#ffc3ad" r="78.6" class="B"/><circle cx="2490.9" cy="1509.2" fill="#ffc3ac" r="75.7" class="B"/><g fill="#ffc2ab"><circle cx="2490.9" cy="1509.2" r="72.9" class="B"/><circle cx="2490.9" cy="1509.2" r="70" class="B"/></g><circle cx="2490.9" cy="1509.2" fill="#ffc1aa" r="68.4" class="B"/><circle cx="2490.9" cy="1509.2" fill="#ffc0a9" r="66.7" class="B"/><path d="m2555.9 1509.2c0 35.9-29.1 65-65 65s-65-29.1-65-65 29.1-65 65-65c35.9-.1 65 29 65 65z" fill="#ffbfa8" class="B"/><circle cx="2490.9" cy="1509.2" fill="#ffbea7" r="63.4" class="B"/><circle cx="2490.9" cy="1509.2" fill="#ffbea6" r="61.7" class="B"/><circle cx="2490.9" cy="1509.2" fill="#ffbda5" r="60" class="B"/><circle cx="2490.9" cy="1509.2" fill="#ffbca4" r="58.4" class="B"/><circle cx="2490.9" cy="1509.2" fill="#ffbba3" r="56.7" class="B"/><circle cx="2490.9" cy="1509.2" fill="#ffbaa2" r="55" class="B"/><circle cx="2490.9" cy="1509.2" fill="#ffb9a1" r="53.4" class="B"/><circle cx="2490.9" cy="1509.2" fill="#ffb8a0" r="51.7" class="B"/><circle cx="2490.9" cy="1509.2" fill="#ffb79f" r="50" class="B"/><circle cx="2490.9" cy="1509.2" fill="#ffb79e" r="48.4" class="B"/><circle cx="2490.9" cy="1509.2" fill="#ffb69d" r="46.7" class="B"/><circle cx="2490.9" cy="1509.2" fill="#ffb59c" r="45" class="B"/><circle cx="2490.9" cy="1509.2" fill="#ffb49b" r="43.4" class="B"/><circle cx="2490.9" cy="1509.2" fill="#ffb39a" r="41.7" class="B"/><circle cx="2490.9" cy="1509.2" fill="#ffb299" r="40" class="B"/><circle cx="2490.9" cy="1509.2" fill="#ffb198" r="38.4" class="B"/><circle cx="2490.9" cy="1509.2" fill="#ffb097" r="36.7" class="B"/><circle cx="2490.9" cy="1509.2" fill="#ffb095" r="35" class="B"/><circle cx="2490.9" cy="1509.2" fill="#ffaf94" r="33.4" class="B"/><circle cx="2490.9" cy="1509.2" fill="#ffae93" r="31.7" class="B"/><circle cx="2490.9" cy="1509.2" fill="#ffad92" r="30" class="B"/><circle cx="2490.9" cy="1509.2" fill="#ffac91" r="28.3" class="B"/><circle cx="2490.9" cy="1509.2" fill="#ffab90" r="26.7" class="B"/><circle cx="2490.9" cy="1509.2" fill="#ffaa8f" r="25" class="B"/><circle cx="2490.9" cy="1509.2" fill="#ffa98e" r="23.3" class="B"/><path d="m2512.6 1509.2c0 12-9.7 21.7-21.7 21.7s-21.7-9.7-21.7-21.7 9.7-21.7 21.7-21.7 21.7 9.7 21.7 21.7z" fill="#ffa98d" class="B"/><circle cx="2490.9" cy="1509.2" fill="#ffa88c" r="20" class="B"/><circle cx="2490.9" cy="1509.2" fill="#ffa78b" r="18.3" class="B"/><circle cx="2490.9" cy="1509.2" fill="#ffa68a" r="16.7" class="B"/><circle cx="2490.9" cy="1509.2" fill="#ffa589" r="15" class="B"/><circle cx="2490.9" cy="1509.2" fill="#ffa488" r="13.3" class="B"/><circle cx="2490.9" cy="1509.2" fill="#ffa387" r="11.7" class="B"/><circle cx="2490.9" cy="1509.2" fill="#ffa286" r="10" class="B"/><circle cx="2490.9" cy="1509.2" fill="#ffa285" r="8.3" class="B"/><circle cx="2490.9" cy="1509.2" fill="#ffa184" r="6.7" class="B"/><circle cx="2490.9" cy="1509.2" fill="#ffa083" r="5" class="B"/><circle cx="2490.9" cy="1509.2" fill="#ff9f82" r="3.3" class="B"/><circle cx="2490.9" cy="1509.2" fill="#ff9e81" r="1.7" class="B"/><g fill="#ffc7b3"><path d="M2912 1354h206.7v171.8H2912z" class="C"/><path d="m3117.6 1446.6c0 25.6-10.4 48.8-27.2 65.6-8.4 8.4-18.4 15.2-29.5 19.9v-5.4h-72.3v5.4c-11.1-4.7-21.1-11.5-29.5-19.9-16.8-16.8-27.2-40-27.2-65.6 0-51.3 41.6-92.8 92.8-92.8 51.3 0 92.9 41.6 92.9 92.8z" class="C"/></g><path d="m3114.7 1446.6c0 24.8-10.1 47.3-26.3 63.6-8.1 8.1-17.8 14.7-28.6 19.3v-2.7h-70v2.7c-10.8-4.6-20.5-11.1-28.6-19.3-16.3-16.3-26.4-38.8-26.4-63.6 0-49.7 40.3-90 90-90s89.9 40.3 89.9 90z" fill="#ffc6b2" class="C"/><circle cx="3024.7" cy="1446.6" fill="#ffc6b1" r="87.1" class="C"/><circle cx="3024.8" cy="1446.6" fill="#ffc5b0" r="84.3" class="C"/><circle cx="3024.7" cy="1446.6" fill="#ffc4ae" r="81.4" class="C"/><circle cx="3024.7" cy="1446.6" fill="#ffc3ad" r="78.6" class="C"/><circle cx="3024.7" cy="1446.6" fill="#ffc3ac" r="75.7" class="C"/><g fill="#ffc2ab"><circle cx="3024.7" cy="1446.6" r="72.9" class="C"/><circle cx="3024.7" cy="1446.6" r="70" class="C"/></g><circle cx="3024.7" cy="1446.6" fill="#ffc1aa" r="68.4" class="C"/><circle cx="3024.8" cy="1446.6" fill="#ffc0a9" r="66.7" class="C"/><circle cx="3024.7" cy="1446.6" fill="#ffbfa8" r="65" class="C"/><circle cx="3024.7" cy="1446.6" fill="#ffbea7" r="63.4" class="C"/><circle cx="3024.7" cy="1446.6" fill="#ffbea6" r="61.7" class="C"/><circle cx="3024.7" cy="1446.6" fill="#ffbda5" r="60" class="C"/><circle cx="3024.7" cy="1446.6" fill="#ffbca4" r="58.4" class="C"/><circle cx="3024.7" cy="1446.6" fill="#ffbba3" r="56.7" class="C"/><circle cx="3024.7" cy="1446.6" fill="#ffbaa2" r="55" class="C"/><circle cx="3024.7" cy="1446.6" fill="#ffb9a1" r="53.4" class="C"/><circle cx="3024.8" cy="1446.6" fill="#ffb8a0" r="51.7" class="C"/><circle cx="3024.7" cy="1446.6" fill="#ffb79f" r="50" class="C"/><circle cx="3024.8" cy="1446.6" fill="#ffb79e" r="48.4" class="C"/><circle cx="3024.7" cy="1446.6" fill="#ffb69d" r="46.7" class="C"/><circle cx="3024.7" cy="1446.6" fill="#ffb59c" r="45" class="C"/><circle cx="3024.7" cy="1446.6" fill="#ffb49b" r="43.4" class="C"/><circle cx="3024.7" cy="1446.6" fill="#ffb39a" r="41.7" class="C"/><circle cx="3024.7" cy="1446.6" fill="#ffb299" r="40" class="C"/><circle cx="3024.7" cy="1446.6" fill="#ffb198" r="38.4" class="C"/><circle cx="3024.7" cy="1446.6" fill="#ffb097" r="36.7" class="C"/><circle cx="3024.7" cy="1446.6" fill="#ffb095" r="35" class="C"/><circle cx="3024.8" cy="1446.6" fill="#ffaf94" r="33.4" class="C"/><circle cx="3024.7" cy="1446.6" fill="#ffae93" r="31.7" class="C"/><circle cx="3024.7" cy="1446.6" fill="#ffad92" r="30" class="C"/><circle cx="3024.7" cy="1446.6" fill="#ffac91" r="28.3" class="C"/><circle cx="3024.7" cy="1446.6" fill="#ffab90" r="26.7" class="C"/><circle cx="3024.7" cy="1446.6" fill="#ffaa8f" r="25" class="C"/><circle cx="3024.7" cy="1446.6" fill="#ffa98e" r="23.3" class="C"/><circle cx="3024.7" cy="1446.6" fill="#ffa98d" r="21.7" class="C"/><circle cx="3024.7" cy="1446.6" fill="#ffa88c" r="20" class="C"/><circle cx="3024.8" cy="1446.6" fill="#ffa78b" r="18.3" class="C"/><circle cx="3024.7" cy="1446.6" fill="#ffa68a" r="16.7" class="C"/><circle cx="3024.8" cy="1446.6" fill="#ffa589" r="15" class="C"/><circle cx="3024.7" cy="1446.6" fill="#ffa488" r="13.3" class="C"/><circle cx="3024.7" cy="1446.6" fill="#ffa387" r="11.7" class="C"/><circle cx="3024.7" cy="1446.6" fill="#ffa286" r="10" class="C"/><circle cx="3024.7" cy="1446.6" fill="#ffa285" r="8.3" class="C"/><circle cx="3024.7" cy="1446.6" fill="#ffa184" r="6.7" class="C"/><circle cx="3024.7" cy="1446.6" fill="#ffa083" r="5" class="C"/><circle cx="3024.7" cy="1446.6" fill="#ff9f82" r="3.3" class="C"/><circle cx="3024.7" cy="1446.6" fill="#ff9e81" r="1.7" class="C"/><ellipse cx="2905.9" cy="1297" rx="52.2" ry="103.8" transform="matrix(.9976 -.069482 .069482 .9976 -83.0974 205.0455)"/><ellipse cx="3289.4" cy="1242.5" fill="url(#N)" rx="138.9" ry="173.9"/><path d="M3314.8 1369.3l-1.6 4.6-1.6 4.4-3.3 8.7c-2.2 5.8-4.5 11.5-6.9 17.2-4.7 11.3-9.7 22.6-14.9 33.6-10.4 22.2-21.8 43.9-34.1 65-24.7 42.3-53.3 82.5-86.8 118.7-16.8 18-34.8 35-54.2 50.4-4.8 3.8-9.9 7.7-15.1 11.3s-10.5 7-15.8 10.3c-10.7 6.5-21.7 12.3-32.9 17.6-22.4 10.6-45.5 19.1-68.8 26.3-11.7 3.6-23.5 6.8-35.4 9.6l-17.9 4-9 1.8-4.5.8c-1.5.3-3 .5-4.7.8l-3.6-21.8 4.1-.8 4.3-.9 8.6-1.9 17.1-4.3c11.3-3.1 22.6-6.5 33.7-10.2 22.3-7.5 44-16.2 64.7-26.7 10.3-5.2 20.4-10.9 30-17.1 4.8-3.1 9.5-6.3 14.1-9.7a259.02 259.02 0 0 0 13.4-10.6c17.8-14.9 34.3-31.3 49.7-48.8 30.8-35 57-74.1 79.5-115.2 11.2-20.6 21.6-41.7 30.9-63.2 4.7-10.7 9.1-21.6 13.3-32.5l6-16.4c1-2.7 1.9-5.5 2.8-8.2l1.3-4.1c.4-1.3.9-2.7 1.2-3.9z" fill="#666"/><path d="m2960 1755.6c.6 13.8-10 25.5-23.8 26.1l-129.9 6c-13.8.6-25.5-10-26.1-23.8l-1.5-32c-.6-13.8 10-25.5 23.8-26.1l129.9-6c13.8-.6 25.5 10 26.1 23.8z" fill="#515151"/><path d="M2701.3 507.2s413.8-50.8 589 327.1c95.2 205.5 56.2 324.4 56.2 324.4H3278s48.8-256.8-126.8-441.3c-190.8-200.5-474.8-193.2-474.8-193.2z" class="E"/><path d="m2750.1 493s382.8-27.1 555.9 337.6c77 162.4 47.8 338 47.8 338l-55.8-26.8s33.6-274.6-116.8-430.6c-206.2-213.9-483.9-191.7-483.9-191.7z" fill="url(#O)"/><ellipse cx="3306" cy="1243" fill="url(#P)" rx="105.3" ry="137.3"/><ellipse cx="3313.8" cy="1243" fill="url(#Q)" rx="73.3" ry="103"/><path d="m3313.8 1352.5c-21.7 0-42-11.7-57.1-32.9-14.6-20.5-22.7-47.8-22.7-76.6s8.1-56.1 22.7-76.6c15.1-21.2 35.4-32.9 57.1-32.9s42 11.7 57.1 32.9c14.6 20.5 22.7 47.8 22.7 76.6s-8.1 56.1-22.7 76.6c-15.1 21.2-35.4 32.9-57.1 32.9zm0-206c-36.8 0-66.8 43.3-66.8 96.5s30 96.5 66.8 96.5 66.8-43.3 66.8-96.5-30-96.5-66.8-96.5z" fill="#474747"/><path d="m2751.3 2384.6s138.6 45.8 339.7 16.9l-314.1 556.1s-52.4-423.8-25.6-573z" fill="url(#R)"/><path d="M3164.9 1941.7s-115.7 337.2-247.6 667.5c-66.3 166.1-115.4 304-115.4 304s-96.2-597.3 25.4-852.5l-13.9-70.5-171.4 150.3s-4.7 310.5-44.9 387.5-135.9 144.6-67.8 249.7 177.5 197.1 178 300-42.1 462.3-42.1 462.3H3540l37.1-1356.5s-193.7-182.9-287.7-237.8c-94-55-123.2-95.1-123.2-95.1z" fill="url(#S)"/><g fill="#0f3e60"><path d="M2822.9 2924s340.1-311.1 412.1-462.7l-56-76.7 135.8-50.9s-4.5-313.2-36.4-379.6l-10.5 366.1-145.7 38.9 56.8 82.6-95.6 147C3053 2636 2822.9 2924 2822.9 2924z"/><path d="M2823.3 2924.3l-.7-.7 260.4-335.2 95.4-146.8-57-82.9 146-39 10.6-367.8.9 1.9c31.6 65.7 36.4 376.7 36.4 379.8v.4l-.3.1-135.2 50.6 55.8 76.4-.1.3c-37.2 78.3-147.3 200-233.1 288.3-93 95.7-178.3 173.9-179.1 174.6zm299.7-564.9l56.6 82.3-.2.3-95.6 147c-27.8 43.3-225.4 291.3-256.4 330.2 19.3-17.9 93.9-87.4 174.2-170.1 85.7-88.1 195.5-209.5 232.8-287.8l-56.3-77 .6-.2 135.5-50.7c-.2-12-5.2-308.7-35.5-377.1l-10.5 364.3-.4.1z"/><ellipse cx="2816.6" cy="3051.9" rx="20.2" ry="29.4"/><ellipse cx="2822.9" cy="3230.7" rx="20.2" ry="29.4"/><path d="M2756.8 2045.4l-99 208.4 49.5 43.1-65.5 81.3s30.8 293.9 133.9 514.1l-101.4-503.9 57.2-105.9-36.3-47.1z"/></g><path d="M2833.7 3372.4l-194.5 24.8s-165.5-144.8-182-173.8-32.3-23.9-72.7-23.9-96.2-.3-96.2-.3l-127.2 59.3s-111.7 99.3-133.4 108.6c0 0 43.4 37.2 86.9 3.1 43.4-34.1 86.9-72 86.9-72l121-33.5-99.3 71.4-136.5 168.7s16.2 22.2 56.2 0l-20.5 25.8s29.5 25.8 63.6-5.2 79.7-88.1 79.7-88.1l119.7-63.6-100.1 102-74.5 105.5s37.2 15.5 68.3-24.8c31-40.3 52.8-65.2 52.8-65.2l75.8-44.4s82.5 100.3 153.9 115.8 102.6-15.5 102.6-15.5l235.8-9.3c-.1 0 30.5-122.5-66.3-165.4z" fill="url(#T)"/><path d="M2145.1 3499.3l22.1-28.4 22.5-28.1 22.7-27.9 22.9-27.7c.3-.4.6-.7 1-.9l.2-.1 28.3-20.4 28.4-20.2 28.6-20 28.9-19.6c2.8-1.8 6.5-1.1 8.3 1.7 1.8 2.7 1.1 6.2-1.4 8.1-9.3 7-18.7 13.8-28.2 20.6l-28.4 20.3-28.6 20-28.7 19.8 1.2-1-23.8 26.9-24 26.8-24.2 26.6-24.6 26.3c-.8.8-2 .8-2.8.1-.9-1-1-2.1-.4-2.9zm243-120.3l-119.7 63.6 1.8-1.5-31.2 35.2c-10.5 11.6-21.1 23.2-32.2 34.4l-8.4 8.3c-2.9 2.7-5.8 5.4-9.1 8-1.7 1.3-3.3 2.4-4.9 3.5s-3.3 2.2-5 3.3c-3.4 2.1-6.9 4.2-10.5 5.9a57.27 57.27 0 0 1-11.6 4.2c-4 .9-8.3 1.3-12.5.8s-8.3-1.8-11.9-3.8c-3.7-2-6.9-4.5-9.8-7.3-.8-.7-.8-1.9-.1-2.7.7-.7 1.9-.8 2.6-.1 2.8 2.5 5.9 4.6 9.2 6.2s6.8 2.6 10.4 2.8c7.2.6 14.4-1.8 21-5.4a96.04 96.04 0 0 0 9.6-6c1.6-1.1 3.1-2.2 4.7-3.4 1.5-1.1 3.2-2.4 4.5-3.5 2.8-2.4 5.5-5.1 8.2-7.9s5.3-5.6 7.9-8.5c10.4-11.5 20.4-23.5 30.4-35.5l29.4-36.3a6.55 6.55 0 0 1 1.8-1.5l119.7-63.6c2.9-1.6 6.6-.4 8.1 2.5 1.7 3.1.5 6.8-2.4 8.3z" class="D"/><path d="m2970.4 3311.7 29.5 281.4-232.5.1c29.1-112.5-9.4-292.5-9.4-292.5z" fill="url(#U)"/><path d="M3512.5 2171.6c6.1-.9 90-2 133.2 107.3s90.5 285 60.3 334.3l-30.2 49.3s40.7-.1 16.4 32.8-22.4 140.2-28.2 202.3 5.4 297-18.3 423-47.3 239.1-68.5 250.1-102.2 38-210.2 41-544.1.3-544.1.3 23-197.8-21-321.1c0 0 270.4 12 348.6-5.5s132.9-7.6 150.5 5.5 60 10.5 30-18.9-57-17.4-36-62.4 34.2-81.1 12.6-202.6-42-553.5 7.2-652.5 91.2-167.8 197.7-182.9z" fill="#33597c"/><path d="M3350 2674.9s149.4-92.9 216.1-84.9c80.9 9.7 108.4 39 105.6 54.6s-3.4 28.5-36.9 30.2-23.9-44.8-284.8.1zm317.2 34.8s-60.8 28-56.8 54 23 63 18 86-53-63-98-81-175.8-59-175.8-59 182.4 35 312.6 0zM3519.1 2192c-1.1-.1-2.5-.1-3.8-.1s-2.6.1-3.9.2l-7.9.8c-5.3.7-10.5 1.8-15.6 3.2-10.3 2.8-20.2 6.7-29.7 11.5-19 9.6-36 22.9-51 38.1-7.5 7.6-14.5 15.8-21.1 24.3s-12.7 17.4-18.5 26.5c-2.9 4.6-5.6 9.2-8.3 13.9s-5.3 9.4-7.8 14.2c-5 9.6-9.7 19.4-14.1 29.3-4.4 10-8.5 20-12.3 30.2s-7.5 20.6-10.9 31c-6.9 20.8-12.9 41.8-17.9 63.1-5 21.2-9 42.7-11.8 64.3s-4.5 43.3-4.9 65.1.5 43.6 2.3 65.4 4.6 43.6 7.5 65.5c3 21.9 6.1 43.9 8.1 66.3l12 132.3 5.4 66.3 4.3 66.4c.6 11.1 1.1 22.2 1.3 33.3.2 11.2.4 22.3-.3 33.7-.2 3.2-2.9 5.6-6.1 5.4-3.1-.2-5.5-2.8-5.4-5.9v-.1c.3-10.7-.1-21.7-.7-32.7l-2.1-33-5.8-66-6.6-66-13.8-132.1c-2.2-21.7-5.5-43.5-8.7-65.4s-6.2-44.1-8.2-66.4-3-44.8-2.6-67.3c.3-22.5 1.9-45 4.7-67.3 2.9-22.3 7-44.4 12.2-66.3 5.2-21.8 11.4-43.4 18.4-64.7 3.5-10.6 7.2-21.2 11.2-31.7s8.2-21 12.8-31.2c4.6-10.3 9.5-20.4 14.9-30.4 2.7-5 5.5-9.9 8.3-14.8 2.9-4.9 5.9-9.7 9-14.4 6.3-9.5 12.9-18.7 20.2-27.5 7.2-8.8 15-17.2 23.3-25 16.6-15.7 35.7-29.1 56.8-38.4 10.6-4.6 21.6-8.2 32.9-10.3a124.75 124.75 0 0 1 17.1-2.1c2.9-.1 5.8-.2 8.7-.1 1.5 0 2.9.1 4.4.2s2.9.3 4.5.5c2.2.4 3.7 2.4 3.3 4.6-.3 2.1-2.2 3.5-4.2 3.4z" fill="#0f3e60"/><path d="M2031.4 3366.2l4.8 3.8 5.2 3.4c3.6 2.1 7.3 4 11.1 5.4 7.7 3 15.9 4.4 23.9 3.9s15.8-3.1 22.7-7.2a73.27 73.27 0 0 0 5.1-3.3l5.1-3.8 10.2-7.8c13.5-10.5 26.6-21.5 39.5-32.8s25.6-22.8 37.9-34.6l.3-.3c.7-.6 1.6-1.1 2.5-1.3l121.9-30.1c1.8-.4 3.5.6 4 2.4.4 1.7-.6 3.4-2.2 3.9l-120.1 36.8 2.8-1.6c-13 11.5-26.2 22.6-39.7 33.5-13.5 10.8-27.2 21.4-41.2 31.5l-10.6 7.5-5.4 3.7c-1.9 1.3-3.9 2.4-5.9 3.5-8.1 4.3-17.2 7-26.4 7.2s-18.3-1.8-26.5-5.4c-4.1-1.8-8.1-3.9-11.8-6.3-1.9-1.2-3.7-2.5-5.4-3.9-1.8-1.4-3.4-2.8-5.1-4.4-1-1-1-2.5-.1-3.5.8-1 2.3-1.1 3.4-.2zm379.4 85.7l-82.4 52.2 1.7-1.6c-7.4 10.1-15 19.8-22.8 29.3-7.9 9.5-16 18.9-24.8 27.8-4.4 4.4-8.9 8.8-13.8 12.9-2.4 2-5 4-7.6 5.8-1.3.9-2.7 1.8-4.2 2.6-.7.4-1.5.8-2.2 1.2-.4.2-.8.4-1.1.6l-1.1.5c-5.8 2.6-11.7 4.9-18.1 6.3-3.2.7-6.5 1.2-9.9 1.3-1.7 0-3.4-.1-5.2-.4-.9-.2-1.8-.4-2.7-.7-.5-.1-.9-.3-1.4-.5-.2-.1-.5-.2-.7-.4l-.6-.3c-.1-.1-.1-.1-.3-.2-1.5-1.1-1.8-3.2-.7-4.7s3.2-1.8 4.7-.7l-.1-.1.1.1.3.1c.2.1.5.2.8.3.5.2 1.2.3 1.8.4 1.3.2 2.6.2 4 .1 2.7-.1 5.5-.6 8.3-1.4 5.6-1.5 11.1-3.8 16.4-6.4 5-2.4 9.6-6.1 14-10.1s8.6-8.3 12.7-12.7c8.2-8.9 15.8-18.4 23.2-28s14.6-19.6 21.4-29.5c.5-.7 1.1-1.2 1.7-1.6l82.4-52.2c2.8-1.8 6.5-.9 8.3 1.9 1.5 2.6.7 6.3-2.1 8.1z" class="D"/><path d="M1183.9 3708.2l-868.2-271.9 374.6-76.4 1006.3 253.5zm416.3-659.8L532.4 2894.2 325.6 1488.8l1067.8-192z" fill="#666"/><g class="E"><ellipse cx="859.7" cy="2295.3" rx="243.4" ry="365.2" transform="matrix(.9836 -.1804 .1804 .9836 -399.939 192.7247)"/><path d="m738.5 1968.3s-238.4 48-182.5 529.1c45.2 389.2 204.9 1021.3 204.9 1021.3h368.9s-321.3-447.5-317.3-835.4c2.1-205.5 253.3-212.6 253.3-212.6s42.2-552.8-327.3-502.4z"/><ellipse cx="945.3" cy="3518.5" rx="184.5" ry="64.3"/></g><path d="m1184.3 3753.7-869-278.8v-38.6l869 271.9z" fill="#b3b3b3"/><path d="m1679.3 3017.7-91 30.7-194.9-1751.6 96.7 48.6z" fill="#999"/><path d="m1695.3 3637.7-511 116v-45.5l511-95.2z" fill="#898989"/></svg>